<?xml version="1.0" encoding="UTF-8"?>
<!DOCTYPE svg PUBLIC "-//W3C//DTD SVG 1.1//EN" "http://www.w3.org/Graphics/SVG/1.1/DTD/svg11.dtd">
<!-- Creator: CorelDRAW X6 -->
<svg xmlns="http://www.w3.org/2000/svg" xml:space="preserve" width="512mm" height="450.45mm" version="1.1" style="shape-rendering:geometricPrecision; text-rendering:geometricPrecision; image-rendering:optimizeQuality; fill-rule:evenodd; clip-rule:evenodd"
viewBox="0 0 626 551"
 xmlns:xlink="http://www.w3.org/1999/xlink">
 <defs>
  <style type="text/css">
   <![CDATA[
    .fil1 {fill:#A6A7AB}
    .fil2 {fill:#FF6600}
    .fil0 {fill:white}
   ]]>
  </style>
 </defs>
 <g id="Слой_x0020_1">
  <metadata id="CorelCorpID_0Corel-Layer"/>
  <path class="fil0" d="M504 280c18,-27 29,-59 29,-94 0,-93 -76,-168 -169,-168 -70,0 -130,43 -156,104l-179 0 -29 25 0 404 515 0 106 -236 -13 -29 -104 0 0 -6z"/>
  <path class="fil1" d="M169 158l-133 0 0 393 -36 0c0,-137 0,-274 0,-410 1,-13 8,-18 17,-19l160 0c-4,12 -7,24 -8,36z"/>
  <path class="fil2" d="M364 0c103,0 186,83 186,185 0,46 -17,89 -45,121l-52 0c37,-27 61,-71 61,-121 0,-82 -67,-149 -150,-149 -82,0 -149,67 -149,149 0,50 24,94 60,121l-52 0c-27,-32 -44,-75 -44,-121 0,-102 83,-185 185,-185z"/>
  <polygon class="fil2" points="350,85 378,85 378,171 464,171 464,199 350,199 "/>
  <polygon class="fil2" points="350,13 378,13 378,54 350,54 "/>
  <path class="fil2" d="M536 170l0 28 -41 0 0 -28 41 0zm-302 0l0 28 -41 0 0 -28 41 0z"/>
  <path class="fil2" d="M253 314l-20 -19 29 -29 20 20 -29 28zm213 -213l-19 -20 29 -29 19 20 -29 29z"/>
  <path class="fil2" d="M476 317l19 -20 -29 -29 -19 20 29 29zm-214 -214l20 -19 -29 -29 -20 19 29 29z"/>
  <path class="fil1" d="M0 551l494 0c20,0 21,0 28,-17 34,-76 69,-152 103,-228 3,-11 1,-18 -12,-20 -159,0 -318,0 -477,0 -13,1 -20,6 -24,15l-108 241 -4 9z"/>
 </g>
</svg>
