<?xml version="1.0" encoding="UTF-8"?>
<!DOCTYPE svg PUBLIC "-//W3C//DTD SVG 1.1//EN" "http://www.w3.org/Graphics/SVG/1.1/DTD/svg11.dtd">
<!-- Creator: CorelDRAW 2017 -->
<svg xmlns="http://www.w3.org/2000/svg" xml:space="preserve" width="17.1713mm" height="15.4567mm" version="1.1" style="shape-rendering:geometricPrecision; text-rendering:geometricPrecision; image-rendering:optimizeQuality; fill-rule:evenodd; clip-rule:evenodd"
viewBox="0 0 0.1298 0.1168"
 xmlns:xlink="http://www.w3.org/1999/xlink">
 <defs>
  <style type="text/css">
   <![CDATA[
    .fil1 {fill:#FEFEFE;fill-rule:nonzero}
    .fil2 {fill:#B2B3B3;fill-rule:nonzero}
    .fil0 {fill:#F5A36D;fill-rule:nonzero}
   ]]>
  </style>
 </defs>
 <g id="Слой_x0020_1">
  <metadata id="CorelCorpID_0Corel-Layer"/>
  <g id="_2961123806416">
   <polygon class="fil0" points="0.1296,0.0739 0.1156,0.07 0.0939,0.0242 0.0989,0.0176 "/>
   <polygon class="fil0" points="0.0947,0.0641 0.0833,0.0382 0.0904,0.0288 0.109,0.0681 "/>
   <polygon class="fil1" points="0.0658,0.041 0.075,0.0407 0.0668,0.0516 "/>
   <polygon class="fil0" points="0.0791,0.0353 0.0653,0.0358 0.0639,0.0218 0.0863,0.0257 "/>
   <polygon class="fil0" points="0.062,0.0548 0.0319,0.0464 0.0589,0.0237 "/>
   <polygon class="fil0" points="0.0605,0.0599 0.0437,0.0822 0.0309,0.0516 "/>
   <polygon class="fil2" points="0.063,0.0652 0.0651,0.0866 0.048,0.0852 "/>
   <polygon class="fil2" points="0.0678,0.062 0.0877,0.0676 0.07,0.084 "/>
   <polygon class="fil1" points="0.0693,0.0569 0.0797,0.043 0.0882,0.0623 "/>
   <polygon class="fil0" points="0.0899,0.021 0.0634,0.0164 0.062,0.0025 0.0951,0.0141 "/>
   <polygon class="fil0" points="0.0569,0.0033 0.0583,0.0175 0.0259,0.0447 0.0046,0.0387 "/>
   <polygon class="fil0" points="0.0037,0.0439 0.0246,0.0498 0.0401,0.087 0.0326,0.097 "/>
   <polygon class="fil0" points="0.0368,0.1 0.0442,0.0901 0.0656,0.0919 0.067,0.1064 "/>
   <path class="fil0" d="M0.068 0.1168l-0.0503 0c-0.0066,0 -0.0111,-0.0014 -0.0138,-0.0041 -0.0026,-0.0027 -0.0039,-0.0084 -0.0039,-0.0169l0 -0.0479 0.0292 0.0536 -0.0024 0.0032c-0.0009,0.0012 -0.0007,0.0028 0.0004,0.0037 0.0008,0.0007 0.002,0.0007 0.0028,0.0002 0.0003,-0.0002 0.0006,-0.0004 0.0008,-0.0007l0.0024 -0.0032 0.0343 0.0073 0.0005 0.0049z"/>
   <path class="fil0" d="M0.1298 0.0794l0 0.0164c0,0.0085 -0.0013,0.0141 -0.0039,0.0169 -0.0026,0.0028 -0.0072,0.0041 -0.0138,0.0041l-0.0389 0 -0.0006 -0.0062 0.0418 -0.0356 0.0154 0.0043z"/>
   <path class="fil0" d="M0.0707 0l0.0373 0c0.0089,0 0.0148,0.0013 0.0176,0.004 0.0028,0.0026 0.0042,0.0083 0.0042,0.017l0 0.0424 -0.0274 -0.0504 0.0007 -0.0009c0.0009,-0.0012 0.0007,-0.0028 -0.0004,-0.0037 -0.0011,-0.0009 -0.0028,-0.0006 -0.0036,0.0005l-0.0006 0.0008 -0.0277 -0.0097z"/>
   <path class="fil0" d="M-0 0.021c0,-0.0087 0.0014,-0.0144 0.0042,-0.017 0.0028,-0.0027 0.0087,-0.004 0.0176,-0.004l0.0307 0 -0.0525 0.0355 0 -0.0145z"/>
   <polygon class="fil0" points="0.072,0.1044 0.0706,0.0905 0.0935,0.0692 0.1084,0.0734 "/>
  </g>
 </g>
</svg>
