<?xml version="1.0" encoding="UTF-8"?>
<!DOCTYPE svg PUBLIC "-//W3C//DTD SVG 1.1//EN" "http://www.w3.org/Graphics/SVG/1.1/DTD/svg11.dtd">
<!-- Creator: CorelDRAW X6 -->
<svg xmlns="http://www.w3.org/2000/svg" xml:space="preserve" width="479.236mm" height="512mm" version="1.1" style="shape-rendering:geometricPrecision; text-rendering:geometricPrecision; image-rendering:optimizeQuality; fill-rule:evenodd; clip-rule:evenodd"
viewBox="0 0 435 464"
 xmlns:xlink="http://www.w3.org/1999/xlink">
 <defs>
  <style type="text/css">
   <![CDATA[
    .fil1 {fill:#A6A7AB}
    .fil2 {fill:#FF6600}
    .fil0 {fill:white}
   ]]>
  </style>
 </defs>
 <g id="Слой_x0020_1">
  <metadata id="CorelCorpID_0Corel-Layer"/>
  <path class="fil0" d="M113 29c63,0 126,0 189,0 13,0 21,4 27,11 32,33 63,66 95,98 8,10 10,20 11,30 0,95 0,189 0,284 -2,7 -7,11 -14,12 -103,0 -206,0 -308,0 -9,0 -15,-5 -18,-14 0,-133 0,-266 0,-399 1,-15 8,-20 18,-22z"/>
  <path class="fil1" d="M155 254l222 0 0 28 -222 0 0 -28zm0 117l222 0 0 28 -222 0 0 -28zm0 -59l222 0 0 28 -222 0 0 -28z"/>
  <path class="fil1" d="M113 29c63,0 126,0 189,0 13,0 21,4 27,11 32,33 63,66 95,98 8,10 10,20 11,30 0,95 0,189 0,284 -2,7 -7,11 -14,12 -103,0 -206,0 -308,0 -9,0 -15,-5 -18,-14 0,-133 0,-266 0,-399 1,-15 8,-20 18,-22zm186 136l108 0 0 -5 -101 -103 -7 0c0,36 0,72 0,108zm108 28c-39,0 -78,0 -117,0 -11,1 -17,-5 -19,-19 0,-40 0,-76 0,-117l-148 0 0 379 284 0 0 -243z"/>
  <circle class="fil0" cx="113" cy="113" r="47"/>
  <path class="fil2" d="M204 181c-7,8 -15,16 -23,23 -5,-5 -11,-10 -17,-15 -3,-3 -6,-2 -9,-1 -6,4 -13,7 -20,8 -2,1 -4,3 -4,6 -1,8 -1,16 -2,24 -11,0 -21,0 -32,0 -1,-8 -1,-15 -2,-23 0,-4 -2,-6 -5,-7 -7,-2 -14,-5 -20,-8 -2,-2 -5,-2 -7,0 -6,6 -12,11 -18,16 -8,-7 -16,-15 -23,-23 5,-5 10,-11 15,-17 2,-3 2,-6 1,-9 -4,-6 -6,-12 -8,-19 -1,-3 -4,-5 -8,-5 -8,-1 -15,-1 -22,-2 0,-11 0,-21 0,-32 7,-1 15,-1 22,-2 5,0 7,-3 8,-6 2,-7 4,-13 8,-19 1,-2 1,-5 -1,-8 -5,-6 -10,-12 -15,-17 7,-8 15,-16 23,-23 6,5 12,10 18,15 1,2 5,2 7,1 7,-4 14,-7 21,-9 3,0 4,-3 4,-6 1,-7 1,-15 2,-23 11,0 21,0 32,0 1,8 1,15 2,23 0,4 0,5 5,7 7,2 14,5 20,8 3,2 5,2 6,0 7,-5 13,-11 19,-16 8,7 16,15 23,23 -5,6 -10,12 -15,18 -3,2 -3,5 -1,7 4,6 6,13 8,19 1,3 2,6 6,6 8,1 16,1 24,2 0,11 0,21 0,32 -7,1 -15,1 -22,2 -4,0 -7,2 -8,4 -2,9 -4,15 -8,21 -1,2 -2,4 0,7 6,6 11,12 16,18zm-91 -99c17,0 31,14 31,31 0,17 -14,31 -31,31 -17,0 -31,-14 -31,-31 0,-17 14,-31 31,-31z"/>
 </g>
</svg>
