<?xml version="1.0" encoding="UTF-8"?>
<!DOCTYPE svg PUBLIC "-//W3C//DTD SVG 1.1//EN" "http://www.w3.org/Graphics/SVG/1.1/DTD/svg11.dtd">
<!-- Creator: CorelDRAW X6 -->
<svg xmlns="http://www.w3.org/2000/svg" xml:space="preserve" width="512mm" height="512mm" version="1.1" style="shape-rendering:geometricPrecision; text-rendering:geometricPrecision; image-rendering:optimizeQuality; fill-rule:evenodd; clip-rule:evenodd"
viewBox="0 0 457 457"
 xmlns:xlink="http://www.w3.org/1999/xlink">
 <defs>
  <style type="text/css">
   <![CDATA[
    .fil0 {fill:#A6A7AB}
    .fil2 {fill:#FF6600}
    .fil1 {fill:white}
   ]]>
  </style>
 </defs>
 <g id="Слой_x0020_1">
  <metadata id="CorelCorpID_0Corel-Layer"/>
  <path class="fil0" d="M85 408c10,-9 21,-19 31,-28 8,-6 18,-8 27,-2 12,7 25,12 39,16 11,3 18,11 19,23 1,13 2,27 3,40 16,0 33,0 49,0 2,-14 3,-28 4,-42 0,-10 6,-18 17,-20 13,-4 26,-9 38,-16 11,-7 21,-6 31,3 10,9 20,17 29,26 12,-12 24,-24 36,-36 -10,-10 -19,-21 -28,-32 -7,-8 -7,-17 -2,-26 8,-13 13,-26 17,-41 3,-11 14,-17 25,-17 12,-1 25,-2 37,-3l0 -24 -100 0c0,70 -58,128 -129,128 -70,0 -128,-58 -128,-129 0,-70 58,-128 128,-128l0 -100 -24 0c-1,13 -2,27 -3,40l0 0 0 1c-2,9 -6,18 -16,20 -15,4 -29,10 -42,18 -8,4 -22,3 -28,-3 -10,-9 -20,-18 -30,-27 -12,12 -24,24 -36,36 9,10 18,20 26,30 7,8 9,20 3,29 -6,11 -11,24 -15,36l0 1 0 0c-5,11 -12,19 -25,20 -13,1 -25,2 -38,3 0,16 0,33 0,49 12,1 24,2 36,3 12,0 23,7 27,19 3,13 8,26 15,37 6,11 5,22 -3,31 -9,10 -17,20 -26,29 12,12 24,24 36,36z"/>
  <circle class="fil1" cx="228" cy="229" r="140"/>
  <circle class="fil2" cx="228" cy="229" r="118"/>
  <rect class="fil1" x="179" y="186" width="33.1102" height="84.6175" rx="8" ry="8"/>
  <rect class="fil1" x="245" y="186" width="33.1102" height="84.6175" rx="8" ry="8"/>
 </g>
</svg>
