<?xml version="1.0" encoding="UTF-8"?>
<!DOCTYPE svg PUBLIC "-//W3C//DTD SVG 1.1//EN" "http://www.w3.org/Graphics/SVG/1.1/DTD/svg11.dtd">
<!-- Creator: CorelDRAW X6 -->
<svg xmlns="http://www.w3.org/2000/svg" xml:space="preserve" width="512mm" height="472.754mm" version="1.1" style="shape-rendering:geometricPrecision; text-rendering:geometricPrecision; image-rendering:optimizeQuality; fill-rule:evenodd; clip-rule:evenodd"
viewBox="0 0 521 481"
 xmlns:xlink="http://www.w3.org/1999/xlink">
 <defs>
  <style type="text/css">
   <![CDATA[
    .fil1 {fill:#A6A7AB}
    .fil2 {fill:#FF6600}
    .fil0 {fill:white}
   ]]>
  </style>
 </defs>
 <g id="Слой_x0020_1">
  <metadata id="CorelCorpID_0Corel-Layer"/>
  <g id="_776156896">
   <circle class="fil0" cx="257" cy="163" r="121"/>
   <circle class="fil0" cx="260" cy="319" r="30"/>
   <path class="fil1" d="M257 41c67,0 121,55 121,122 0,67 -54,121 -121,121 -68,0 -122,-54 -122,-121 0,-67 54,-122 122,-122zm83 185c-7,6 -14,13 -21,20 -5,-4 -10,-9 -16,-13 -3,-4 -5,-3 -8,-1 -6,3 -12,5 -18,7 -2,1 -4,2 -4,5 -1,7 -1,15 -2,22 -9,0 -19,0 -29,0 -1,-7 -1,-14 -2,-21 0,-3 -2,-5 -5,-6 -6,-2 -12,-4 -18,-8 -2,-1 -4,-1 -6,1 -6,5 -11,10 -17,14 -7,-7 -14,-14 -21,-20 5,-6 9,-11 14,-16 2,-3 2,-6 1,-9 -3,-5 -6,-11 -7,-17 -1,-2 -4,-5 -8,-5 -7,0 -13,-1 -20,-1 0,-10 0,-20 0,-30 7,0 14,-1 21,-1 4,0 6,-3 7,-6 1,-6 4,-12 7,-17 1,-2 1,-5 -1,-8 -5,-5 -9,-10 -14,-16 7,-7 14,-14 21,-21 5,5 11,10 16,15 2,1 6,1 7,0 6,-3 13,-6 20,-8 2,0 3,-3 3,-5 1,-7 1,-14 2,-21 10,0 20,0 29,0 1,7 1,14 2,21 0,3 0,4 5,6 6,2 13,4 18,8 2,1 4,1 6,0 5,-5 11,-10 17,-16 7,7 14,14 21,21 -5,6 -10,11 -14,17 -3,2 -2,5 -1,7 3,5 6,11 8,17 1,3 1,5 5,6 7,0 15,1 22,1 0,10 0,20 0,30 -7,0 -14,1 -20,1 -4,0 -6,2 -7,4 -2,8 -5,14 -8,19 -1,2 -2,4 0,6 5,6 10,12 15,18z"/>
   <path class="fil1" d="M257 33c71,0 129,58 129,130 0,71 -58,129 -129,129 -72,0 -130,-58 -130,-129 0,-72 58,-130 130,-130zm0 19c61,0 111,50 111,111 0,61 -50,111 -111,111 -62,0 -111,-50 -111,-111 0,-61 49,-111 111,-111z"/>
   <path class="fil1" d="M260 274c25,0 45,20 45,45 0,25 -20,45 -45,45 -25,0 -46,-20 -46,-45 0,-25 21,-45 46,-45zm0 18c14,0 26,12 26,27 0,15 -12,27 -26,27 -15,0 -27,-12 -27,-27 0,-15 12,-27 27,-27z"/>
   <polygon class="fil1" points="107,356 106,449 88,449 89,344 190,298 77,296 14,365 0,353 69,277 272,281 "/>
   <g>
    <polygon class="fil1" points="61,208 238,284 231,301 37,218 124,0 141,7 "/>
    <polygon class="fil1" points="173,396 227,470 212,481 150,397 225,278 241,288 "/>
   </g>
   <polygon class="fil1" points="414,356 415,449 433,449 432,344 331,298 444,296 507,365 521,353 452,277 249,281 "/>
   <g>
    <polygon class="fil1" points="460,208 283,284 290,301 484,218 397,0 380,7 "/>
    <polygon class="fil1" points="349,396 294,470 309,481 371,397 296,278 280,288 "/>
   </g>
   <circle class="fil2" cx="257" cy="163" r="54"/>
  </g>
 </g>
</svg>
