<?xml version="1.0" encoding="UTF-8"?>
<!DOCTYPE svg PUBLIC "-//W3C//DTD SVG 1.1//EN" "http://www.w3.org/Graphics/SVG/1.1/DTD/svg11.dtd">
<!-- Creator: CorelDRAW X6 -->
<svg xmlns="http://www.w3.org/2000/svg" xml:space="preserve" width="502.182mm" height="512mm" version="1.1" style="shape-rendering:geometricPrecision; text-rendering:geometricPrecision; image-rendering:optimizeQuality; fill-rule:evenodd; clip-rule:evenodd"
viewBox="0 0 378 385"
 xmlns:xlink="http://www.w3.org/1999/xlink">
 <defs>
  <style type="text/css">
   <![CDATA[
    .fil1 {fill:#507C5C}
    .fil2 {fill:#CFF09E}
    .fil0 {fill:white}
   ]]>
  </style>
 </defs>
 <g id="Слой_x0020_1">
  <metadata id="CorelCorpID_0Corel-Layer"/>
  <path class="fil0" d="M14 385l309 0c8,0 15,-6 15,-14l0 -357c0,-7 -7,-14 -15,-14l-194 0c-5,0 -8,3 -11,5l-112 114c-5,5 -6,11 -6,14l0 238c0,8 7,14 14,14z"/>
  <g id="_848221008">
   <path class="fil1" d="M326 385l-315 0c-6,0 -11,-5 -11,-11l0 -181c0,-6 5,-11 11,-11 6,0 11,5 11,11l0 170 293 0 0 -25c0,-6 5,-11 11,-11 7,0 12,5 12,11l0 36c0,6 -5,11 -12,11z"/>
   <g>
    <polygon class="fil2" points="11,133 11,130 128,11 128,133 "/>
    <rect class="fil2" x="144" y="165" width="223" height="123"/>
   </g>
   <g>
    <path class="fil1" d="M367 154l-29 0 0 -143c0,-6 -5,-11 -12,-11l-198 0c0,0 0,0 0,0 0,0 0,0 0,0 -1,0 -1,0 -2,0 0,0 0,0 0,0 0,0 -1,0 -1,1 0,0 0,0 -1,0 0,0 0,0 -1,0 0,0 0,0 0,0 0,1 -1,1 -1,1 0,0 0,0 0,0 -1,1 -1,1 -2,1l-117 119c0,0 0,0 -1,1 0,0 0,0 0,0 0,0 0,0 0,1 0,0 0,0 -1,0 0,0 0,0 0,0 0,1 0,1 0,1 0,0 0,0 0,0 0,1 0,1 0,1 0,0 -1,0 -1,0 0,1 0,1 0,1 0,0 0,0 0,1 0,0 0,0 0,0 0,0 0,0 0,1 0,0 0,0 0,0 0,0 0,1 0,1l0 3c0,6 5,11 11,11l117 0c7,0 12,-5 12,-11l0 -111 175 0 0 132 -171 0c-6,0 -11,5 -11,11l0 123c0,6 5,11 11,11l223 0c6,0 11,-5 11,-11l0 -123c0,-6 -5,-11 -11,-11zm-333 -32l83 -84 0 84 -83 0zm322 155l-201 0 0 -101 201 0 0 101 0 0z"/>
    <path class="fil1" d="M189 236l-12 21c-1,1 -2,1 -3,1 -4,0 -9,-3 -9,-6 0,-1 0,-2 1,-3l14 -22 -14 -22c0,-1 -1,-2 -1,-2 0,-4 5,-6 9,-6 2,0 3,0 4,2l11 19 11 -19c1,-2 2,-2 4,-2 3,0 8,2 8,6 0,0 0,1 -1,2l-14 22 15 22c0,1 0,2 0,3 0,3 -5,6 -8,6 -1,0 -3,0 -3,-1l-12 -21z"/>
    <path class="fil1" d="M223 258c-3,0 -5,-2 -5,-4l0 -53c0,-3 3,-4 6,-4 3,0 7,1 7,4l0 45 18 0c3,0 4,3 4,6 0,3 -1,6 -4,6l-26 0 0 0 0 0z"/>
    <path class="fil1" d="M283 241c0,-10 -26,-8 -26,-27 0,-13 11,-17 21,-17 5,0 17,0 17,7 0,2 -2,7 -5,7 -3,0 -5,-4 -12,-4 -6,0 -8,3 -8,5 0,9 26,7 26,28 0,12 -9,18 -21,18 -10,0 -20,-5 -20,-10 0,-3 3,-7 6,-7 4,0 6,6 14,6 4,0 8,-2 8,-6z"/>
    <path class="fil1" d="M322 236l-12 21c0,1 -1,1 -3,1 -3,0 -8,-3 -8,-6 0,-1 0,-2 0,-3l15 -22 -14 -22c-1,-1 -1,-2 -1,-2 0,-4 5,-6 9,-6 1,0 3,0 3,2l11 19 12 -19c0,-2 2,-2 3,-2 4,0 9,2 9,6 0,0 0,1 -1,2l-14 22 15 22c0,1 0,2 0,3 0,3 -5,6 -8,6 -2,0 -3,0 -3,-1l-13 -21z"/>
   </g>
   <g>
   </g>
   <g>
   </g>
   <g>
   </g>
   <g>
   </g>
   <g>
   </g>
   <g>
   </g>
   <g>
   </g>
   <g>
   </g>
   <g>
   </g>
   <g>
   </g>
   <g>
   </g>
   <g>
   </g>
   <g>
   </g>
   <g>
   </g>
   <g>
   </g>
  </g>
 </g>
</svg>
