<svg xmlns="http://www.w3.org/2000/svg" xmlns:xlink="http://www.w3.org/1999/xlink" version="1.1" width="485.213" height="485.212" style="enable-background:new 0 0 485.213 485.212;" xml:space="preserve"><rect id="backgroundrect" width="100%" height="100%" x="0" y="0" fill="none" stroke="none"/>
















<g class="currentLayer" style=""><title>Layer 1</title><g id="svg_1" class="selected" fill="#3d3d3d" fill-opacity="1">
	<path d="M444.02,294.582h41.192V190.603H444.02c-41.784,0-51.734-24.136-22.275-53.634l29.174-29.169l-73.535-73.507   l-29.136,29.141c-29.529,29.526-53.695,19.518-53.606-22.21c0-0.119-0.061-0.177-0.061-0.266V0H190.646v41.343   c-0.117,41.64-24.194,51.59-53.676,22.096l-29.158-29.144L34.309,107.8l29.144,29.169c29.512,29.498,19.501,53.634-22.213,53.634   H0.001v103.979h41.238c41.714,0,51.723,24.133,22.213,53.662l-29.139,29.146l73.501,73.529l29.16-29.169   c29.479-29.468,53.555-19.518,53.676,22.095v41.368h103.934v-40.958c0-0.089,0.056-0.178,0.056-0.266   c-0.089-41.725,24.077-51.707,53.606-22.239l29.146,29.169l73.53-73.539l-29.17-29.136   C392.285,318.714,402.235,294.582,444.02,294.582z M242.607,333.584c-50.244,0-90.978-40.754-90.978-90.979   c0-50.227,40.734-90.978,90.978-90.978c50.231,0,90.979,40.751,90.979,90.978C333.587,292.831,292.839,333.584,242.607,333.584z" id="svg_2" fill="#3d3d3d" fill-opacity="1"/>
</g><g id="svg_3">
</g><g id="svg_4">
</g><g id="svg_5">
</g><g id="svg_6">
</g><g id="svg_7">
</g><g id="svg_8">
</g><g id="svg_9">
</g><g id="svg_10">
</g><g id="svg_11">
</g><g id="svg_12">
</g><g id="svg_13">
</g><g id="svg_14">
</g><g id="svg_15">
</g><g id="svg_16">
</g><g id="svg_17">
</g></g></svg>