<?xml version="1.0" encoding="UTF-8"?>
<!DOCTYPE svg PUBLIC "-//W3C//DTD SVG 1.1//EN" "http://www.w3.org/Graphics/SVG/1.1/DTD/svg11.dtd">
<!-- Creator: CorelDRAW X6 -->
<svg xmlns="http://www.w3.org/2000/svg" xml:space="preserve" width="478.394mm" height="512mm" version="1.1" style="shape-rendering:geometricPrecision; text-rendering:geometricPrecision; image-rendering:optimizeQuality; fill-rule:evenodd; clip-rule:evenodd"
viewBox="0 0 353 378"
 xmlns:xlink="http://www.w3.org/1999/xlink">
 <defs>
  <style type="text/css">
   <![CDATA[
    .fil0 {fill:#A6A7AB}
    .fil1 {fill:#FF6600}
   ]]>
  </style>
 </defs>
 <g id="Слой_x0020_1">
  <metadata id="CorelCorpID_0Corel-Layer"/>
  <g id="_848237360">
   <path class="fil0" d="M206 185c8,-8 8,-20 0,-27 -27,-27 -72,-27 -99,0l-86 86c-14,13 -21,31 -21,50 0,19 7,37 21,50l13 13c13,13 31,21 50,21 18,0 36,-8 50,-21l66 -67c8,-7 8,-19 0,-26 -7,-8 -19,-8 -26,0l-67 66c-13,13 -34,13 -47,0l-13 -12c-13,-13 -13,-35 0,-48l86 -85c13,-13 34,-13 47,0 7,7 19,7 26,0z"/>
   <path class="fil1" d="M319 21c-13,-14 -31,-21 -50,-21 -19,0 -36,7 -50,21l-71 71c-3,3 -5,8 -5,13 0,5 2,10 5,13 7,8 19,8 26,0l72 -71c13,-13 34,-13 47,0l13 13c13,13 13,34 0,47l-86 86c-13,13 -34,13 -47,0 -8,-7 -19,-7 -27,0 -7,7 -7,19 0,26 28,28 73,28 100,0l86 -85c28,-28 28,-73 0,-100l-13 -13z"/>
  </g>
 </g>
</svg>
