<?xml version="1.0" encoding="iso-8859-1"?>
<!-- Generator: Adobe Illustrator 19.0.0, SVG Export Plug-In . SVG Version: 6.00 Build 0)  -->
<svg version="1.1" id="Layer_1" xmlns="http://www.w3.org/2000/svg" xmlns:xlink="http://www.w3.org/1999/xlink" x="0px" y="0px"
	 viewBox="0 0 512 512" style="enable-background:new 0 0 512 512;" xml:space="preserve">
<path d="M483.499,130.133L435.2,87.552L338.432,2.133C336.896,0.768,334.848,0,332.8,0H85.333C80.64,0,76.8,3.84,76.8,8.533v187.733
	H34.133c-4.693,0-8.533,3.84-8.533,8.533v102.4c0,4.693,3.84,8.533,8.533,8.533H76.8v187.733c0,4.693,3.84,8.533,8.533,8.533
	h392.533c4.693,0,8.533-3.84,8.533-8.533V136.533C486.4,134.059,485.376,131.755,483.499,130.133z M341.333,27.477l93.867,82.773
	L455.339,128H341.333V27.477z M42.667,298.667v-85.333h128c4.693,0,8.533-3.84,8.533-8.533v-36.437L253.355,256l-17.92,21.163
	L179.2,343.637V307.2c0-4.693-3.84-8.533-8.533-8.533H42.667z M469.333,494.933H93.867v-179.2h68.267v51.2
	c0,3.584,2.219,6.741,5.632,8.021c0.939,0.341,1.877,0.512,2.901,0.512c2.475,0,4.864-1.024,6.485-2.987l93.867-110.933
	c2.731-3.243,2.731-7.851,0-11.093L177.152,139.52c-2.304-2.731-6.059-3.669-9.387-2.475c-3.413,1.28-5.632,4.437-5.632,8.021v51.2
	H93.867v-179.2h230.4v119.467c0,4.693,3.84,8.533,8.533,8.533h136.533V494.933z"/>
<g>
	<polygon style="fill:#7E939E;" points="455.339,128 341.333,128 341.333,27.477 	"/>
	<rect x="435.2" y="145.067" style="fill:#7E939E;" width="34.133" height="349.867"/>
</g>
<path style="fill:#AFAFAF;" d="M435.2,145.067v349.867H93.867v-179.2h68.267v51.2c0,3.584,2.219,6.741,5.632,8.021
	c0.939,0.341,1.877,0.512,2.901,0.512c2.475,0,4.864-1.024,6.485-2.987l93.867-110.933c2.731-3.243,2.731-7.851,0-11.093
	L177.152,139.52c-2.304-2.731-6.059-3.669-9.387-2.475c-3.413,1.28-5.632,4.437-5.632,8.021v51.2H93.867v-179.2h230.4v119.467
	c0,4.693,3.84,8.533,8.533,8.533H435.2z"/>
<path style="fill:#9B0045;" d="M253.355,256l-17.92,21.163L204.8,238.933H42.667v-25.6h128c4.693,0,8.533-3.84,8.533-8.533v-36.437
	L253.355,256z"/>
<path style="fill:#CC004E;" d="M179.2,343.637V307.2c0-4.693-3.84-8.533-8.533-8.533h-128v-59.733H204.8l30.635,38.229
	L179.2,343.637z"/>
<g>
</g>
<g>
</g>
<g>
</g>
<g>
</g>
<g>
</g>
<g>
</g>
<g>
</g>
<g>
</g>
<g>
</g>
<g>
</g>
<g>
</g>
<g>
</g>
<g>
</g>
<g>
</g>
<g>
</g>
</svg>
