<?xml version="1.0" encoding="UTF-8"?>
<!DOCTYPE svg PUBLIC "-//W3C//DTD SVG 1.1//EN" "http://www.w3.org/Graphics/SVG/1.1/DTD/svg11.dtd">
<!-- Creator: CorelDRAW X6 -->
<svg xmlns="http://www.w3.org/2000/svg" xml:space="preserve" width="512mm" height="480.148mm" version="1.1" style="shape-rendering:geometricPrecision; text-rendering:geometricPrecision; image-rendering:optimizeQuality; fill-rule:evenodd; clip-rule:evenodd"
viewBox="0 0 367 344"
 xmlns:xlink="http://www.w3.org/1999/xlink">
 <defs>
  <style type="text/css">
   <![CDATA[
    .fil1 {fill:#63B44B}
    .fil0 {fill:#A6A7AB}
    .fil2 {fill:white}
   ]]>
  </style>
 </defs>
 <g id="Слой_x0020_1">
  <metadata id="CorelCorpID_0Corel-Layer"/>
  <path class="fil0" d="M179 15c91,0 165,74 165,164 0,55 -26,102 -67,132l90 33 -188 0c-91,0 -164,-74 -164,-165 0,-90 73,-164 164,-164z"/>
  <path class="fil1" d="M165 0c90,0 164,74 164,165 0,54 -26,102 -66,132l89 32 -187 0c-91,0 -165,-74 -165,-164 0,-91 74,-165 165,-165z"/>
  <path class="fil2" d="M154 216l81 -141 36 21 -96 167 -39 0c-25,-32 -49,-65 -74,-98 -4,-7 -3,-14 4,-20 4,-3 9,-6 13,-9 7,-3 13,-2 18,5l57 75z"/>
 </g>
</svg>
