<?xml version="1.0" encoding="UTF-8"?>
<!DOCTYPE svg PUBLIC "-//W3C//DTD SVG 1.1//EN" "http://www.w3.org/Graphics/SVG/1.1/DTD/svg11.dtd">
<!-- Creator: CorelDRAW X6 -->
<svg xmlns="http://www.w3.org/2000/svg" xml:space="preserve" width="512mm" height="479.991mm" version="1.1" style="shape-rendering:geometricPrecision; text-rendering:geometricPrecision; image-rendering:optimizeQuality; fill-rule:evenodd; clip-rule:evenodd"
viewBox="0 0 367 344"
 xmlns:xlink="http://www.w3.org/1999/xlink">
 <defs>
  <style type="text/css">
   <![CDATA[
    .fil1 {fill:#00CCFF}
    .fil0 {fill:#A6A7AB}
    .fil2 {fill:white}
   ]]>
  </style>
 </defs>
 <g id="Слой_x0020_1">
  <metadata id="CorelCorpID_0Corel-Layer"/>
  <path class="fil0" d="M179 15c91,0 165,73 165,164 0,54 -26,102 -67,132l90 33 -188 0c-91,0 -164,-74 -164,-165 0,-91 73,-164 164,-164z"/>
  <path class="fil1" d="M165 0c90,0 164,74 164,165 0,54 -26,102 -66,132l89 32 -187 0c-91,0 -165,-74 -165,-164 0,-91 74,-165 165,-165z"/>
  <path class="fil2" d="M165 51c12,0 22,11 22,23 0,13 -10,23 -22,23 -13,0 -23,-10 -23,-23 0,-12 10,-23 23,-23zm-13 64l24 0c6,0 12,5 12,12l0 136 -48 0 0 -136c0,-7 6,-12 12,-12z"/>
 </g>
</svg>
