<?xml version="1.0" encoding="UTF-8"?>
<!DOCTYPE svg PUBLIC "-//W3C//DTD SVG 1.1//EN" "http://www.w3.org/Graphics/SVG/1.1/DTD/svg11.dtd">
<!-- Creator: CorelDRAW X6 -->
<svg xmlns="http://www.w3.org/2000/svg" xml:space="preserve" width="512mm" height="444.212mm" version="1.1" style="shape-rendering:geometricPrecision; text-rendering:geometricPrecision; image-rendering:optimizeQuality; fill-rule:evenodd; clip-rule:evenodd"
viewBox="0 0 437 379"
 xmlns:xlink="http://www.w3.org/1999/xlink">
 <defs>
  <style type="text/css">
   <![CDATA[
    .fil1 {fill:#A6A7AB}
    .fil2 {fill:#FF6600}
    .fil0 {fill:white}
   ]]>
  </style>
 </defs>
 <g id="Слой_x0020_1">
  <metadata id="CorelCorpID_0Corel-Layer"/>
  <g id="_776168768">
   <path class="fil0" d="M384 0l-354 0c-16,0 -30,14 -30,30l0 228c0,17 14,31 30,31l316 0 91 90 -23 -163 0 -186c0,-16 -14,-30 -30,-30z"/>
   <path class="fil1" d="M384 0l-354 0c-16,0 -30,14 -30,30l0 228c0,17 14,31 30,31l316 0 91 90 -23 -163 0 -186c0,-16 -14,-30 -30,-30zm14 301l-12 -83 0 -188c0,-1 -1,-2 -2,-2l-354 0c-1,0 -2,1 -2,2l0 228c0,2 1,3 2,3l328 0 40 40z"/>
   <path class="fil2" d="M203 31c62,0 113,51 113,113 0,62 -51,112 -113,112 -62,0 -112,-50 -112,-112 0,-62 50,-113 112,-113zm-64 181c5,-1 10,-3 14,-4 6,9 12,17 20,25 -13,-5 -24,-12 -34,-21zm34 -9c7,-1 14,-2 21,-3l0 27c-8,-7 -15,-15 -21,-24zm40 -3c9,0 19,1 29,3 -8,12 -18,23 -29,30l0 -33zm47 9c3,1 5,2 8,3 -6,6 -13,11 -21,15 5,-6 9,-12 13,-18zm20 -12c-3,-1 -7,-3 -11,-5 6,-12 9,-26 10,-39l18 0c-2,16 -8,32 -17,44zm-29 -10c-12,-4 -25,-5 -38,-6l0 -28 48 0c-1,11 -5,23 -10,34zm-57 -5c-10,0 -21,2 -31,4 -5,-11 -8,-22 -9,-33l40 0 0 29zm-49 9c-6,2 -13,4 -19,7 -9,-13 -14,-28 -16,-45l25 0c1,13 5,26 10,38zm-7 -115c5,2 10,4 14,5 6,-9 13,-18 20,-26 -13,5 -24,12 -34,21zm33 10c8,1 15,2 23,3l0 -29c-9,8 -16,16 -23,26zm42 3c10,0 20,-1 30,-3 -8,-13 -18,-24 -30,-32l0 35zm48 -9c3,-1 5,-2 8,-3 -6,-6 -13,-12 -21,-16 5,6 9,12 13,19zm20 11c-4,2 -7,4 -11,6 5,12 8,25 9,38l18 0c-2,-16 -7,-31 -16,-44zm-29 11c-13,4 -26,6 -39,6l0 27 48 0c-1,-11 -4,-22 -9,-33zm-58 6c-11,-1 -21,-3 -32,-5 -4,10 -7,21 -8,32l40 0 0 -27zm-50 -10c-6,-2 -12,-4 -18,-7 -9,13 -15,28 -16,44l25 0c1,-13 4,-25 9,-37z"/>
  </g>
 </g>
</svg>
