<?xml version="1.0" encoding="UTF-8"?>
<!DOCTYPE svg PUBLIC "-//W3C//DTD SVG 1.1//EN" "http://www.w3.org/Graphics/SVG/1.1/DTD/svg11.dtd">
<!-- Creator: CorelDRAW X6 -->
<svg xmlns="http://www.w3.org/2000/svg" xml:space="preserve" width="512mm" height="504.749mm" version="1.1" style="shape-rendering:geometricPrecision; text-rendering:geometricPrecision; image-rendering:optimizeQuality; fill-rule:evenodd; clip-rule:evenodd"
viewBox="0 0 463 457"
 xmlns:xlink="http://www.w3.org/1999/xlink">
 <defs>
  <style type="text/css">
   <![CDATA[
    .fil0 {fill:#A6A7AB}
    .fil2 {fill:#FF6600}
    .fil1 {fill:white}
   ]]>
  </style>
 </defs>
 <g id="Слой_x0020_1">
  <metadata id="CorelCorpID_0Corel-Layer"/>
  <path class="fil0" d="M88 407c10,-9 21,-18 31,-27 8,-7 18,-8 27,-2 12,7 25,12 39,16 11,3 18,11 19,23 1,13 2,26 3,40 16,0 33,0 49,0 1,-14 3,-28 4,-42 0,-11 6,-18 17,-21 13,-3 26,-8 38,-15 11,-7 21,-7 31,3 10,8 19,17 29,25 12,-11 24,-23 36,-35 -10,-11 -19,-21 -28,-32 -8,-8 -7,-18 -2,-26 8,-13 13,-26 17,-41 3,-11 14,-17 24,-17 13,-1 25,-2 38,-3 0,-16 0,-33 0,-50 -14,-1 -27,-2 -41,-3 -14,-1 -17,-7 -22,-18l0 -1 0 0c-4,-13 -9,-26 -15,-38 -7,-8 -6,-20 2,-27 9,-11 18,-21 27,-31 -12,-12 -24,-24 -36,-36 -11,10 -22,20 -34,29 -7,7 -16,6 -23,1 -13,-7 -26,-13 -40,-17 -14,-4 -17,-9 -19,-22l0 0 0 0c-1,-14 -2,-27 -3,-40 -16,0 -33,0 -49,0 -1,13 -2,27 -3,40l0 0 0 1c-2,9 -6,18 -16,20 -15,4 -29,10 -42,18 -8,4 -22,3 -28,-3 -10,-9 -20,-18 -30,-27 -12,12 -24,24 -36,36 9,10 18,20 27,30 6,8 8,20 2,29 -6,11 -11,23 -15,36l0 1 0 0c-4,11 -12,19 -25,20 -13,1 -25,1 -38,2 0,17 0,34 0,50 12,1 24,2 36,3 12,0 23,7 27,19 3,13 9,26 15,37 6,10 5,22 -3,31 -9,9 -17,19 -26,29 12,12 24,24 36,35z"/>
  <g id="_776156928">
   <rect class="fil1" y="154" width="463" height="145" rx="12" ry="12"/>
   <path class="fil2" d="M9 154l47 0 -44 145c-1,0 -2,0 -3,0 -4,0 -8,-3 -9,-9 0,-43 0,-86 0,-128 1,-5 4,-7 9,-8zm104 0l56 0 -45 145 -56 0 45 -145zm113 0l56 0 -45 145 -56 0 45 -145zm113 0l56 0 -45 145 -56 0 45 -145zm113 0c0,0 1,0 2,0 5,1 8,5 9,9 0,43 0,86 0,129 0,5 -3,7 -7,7l-49 0 45 -145z"/>
  </g>
 </g>
</svg>
