<?xml version="1.0" encoding="UTF-8"?>
<!DOCTYPE svg PUBLIC "-//W3C//DTD SVG 1.1//EN" "http://www.w3.org/Graphics/SVG/1.1/DTD/svg11.dtd">
<!-- Creator: CorelDRAW 2017 -->
<svg xmlns="http://www.w3.org/2000/svg" xml:space="preserve" width="112.183mm" height="61.058mm" version="1.1" style="shape-rendering:geometricPrecision; text-rendering:geometricPrecision; image-rendering:optimizeQuality; fill-rule:evenodd; clip-rule:evenodd"
viewBox="0 0 31.3248 17.0491"
 xmlns:xlink="http://www.w3.org/1999/xlink">
 <defs>
  <style type="text/css">
   <![CDATA[
    .fil1 {fill:#EBECEC;fill-rule:nonzero}
    .fil3 {fill:#898989;fill-rule:nonzero}
    .fil5 {fill:#EF7F1A;fill-rule:nonzero}
    .fil2 {fill:#FEFEFE;fill-rule:nonzero}
    .fil4 {fill:#EF7F1A;fill-rule:nonzero;fill-opacity:0.831373}
    .fil0 {fill:url(#id0)}
   ]]>
  </style>
  <linearGradient id="id0" gradientUnits="userSpaceOnUse" x1="4.2445" y1="17.0491" x2="4.2449" y2="0">
   <stop offset="0" style="stop-opacity:1; stop-color:#221E1F"/>
   <stop offset="1" style="stop-opacity:1; stop-color:#A2A2A2"/>
  </linearGradient>
 </defs>
 <g id="Слой_x0020_1">
  <metadata id="CorelCorpID_0Corel-Layer"/>
  <rect class="fil0" x="-0.0001" width="31.3248" height="17.0491"/>
  <path class="fil1" d="M9.7583 5.8088l0.601 0c0.0591,0 0.0977,0.0255 0.1161,0.0768l0 0.1236c0,0.0992 -0.0074,0.1552 -0.0221,0.168 -0.0131,0.0265 -0.0445,0.0398 -0.094,0.0398 -0.0134,0.0051 -0.0201,0.0125 -0.0201,0.0221 0.0524,0.1067 0.0928,0.1842 0.1213,0.2322l0.0025 0.0124c-0.0033,0.0077 -0.0065,0.0118 -0.0096,0.0125l-0.1708 0c-0.017,0 -0.0409,-0.0329 -0.072,-0.0989 -0.0548,-0.1031 -0.0879,-0.1609 -0.0987,-0.1731 -0.0083,-0.0047 -0.0165,-0.0072 -0.0244,-0.0072l-0.2155 0c-0.0198,0 -0.0298,0.0188 -0.0298,0.0567l0 0.2028c0,0.0131 -0.0065,0.0197 -0.0196,0.0197l-0.1708 0c-0.0145,0 -0.0219,-0.0092 -0.0219,-0.0273l0 -0.2697c0,-0.0507 0.0214,-0.0861 0.0642,-0.1059 0.0183,-0.01 0.039,-0.0149 0.0619,-0.0149l0.0863 0c0.0951,0 0.2304,-0.0008 0.4059,-0.0023 0.0125,0 0.0198,-0.01 0.0221,-0.0298l0 -0.0447c0,-0.0213 -0.0141,-0.0321 -0.0422,-0.0321l-0.5707 0c-0.0183,0 -0.0273,-0.0074 -0.0273,-0.0221l0 -0.0075c0,-0.0526 0.019,-0.0904 0.057,-0.1138 0.0285,-0.0114 0.0524,-0.0172 0.0715,-0.0172z"/>
  <path id="1" class="fil1" d="M13.8545 5.8088c0.0588,0 0.1945,0.0008 0.4072,0.0023 0.0103,0 0.0167,0.0073 0.0192,0.0221l0 0.0221c0,0.037 -0.0105,0.0645 -0.0316,0.0825 0,0.0111 -0.0277,0.0234 -0.083,0.0368l-0.6724 0c-0.0164,0 -0.0245,-0.0123 -0.0245,-0.0368l0 -0.0049c0,-0.0552 0.0236,-0.0935 0.0706,-0.1146 0.007,-0.0031 0.0169,-0.0056 0.0293,-0.0072 0.147,-0.0015 0.2421,-0.0023 0.2854,-0.0023zm-0.3584 0.2561l0.7143 0c0.0262,0 0.0529,0.0154 0.0801,0.046 0.01,0.0083 0.0149,0.0337 0.0149,0.0758l0 0.1924c0,0.0463 -0.0106,0.0748 -0.0317,0.0854 -0.0178,0.0211 -0.0486,0.0316 -0.0925,0.0316l-0.6485 0c-0.0242,0 -0.0365,-0.0098 -0.0365,-0.0293l0 -0.0095c0,-0.0465 0.0098,-0.0765 0.0293,-0.0902 0.0228,-0.0228 0.0527,-0.0341 0.0902,-0.0341l0.4556 0c0.0228,0 0.034,-0.0178 0.034,-0.0537l0 -0.0025c0,-0.0359 -0.0121,-0.0537 -0.0363,-0.0537 -0.1737,0.0016 -0.2947,0.0025 -0.3631,0.0025 -0.0301,0 -0.082,-0.0008 -0.1559,-0.0025 -0.0137,0 -0.0326,-0.0139 -0.0562,-0.0417 -0.0164,-0.0192 -0.0245,-0.045 -0.0245,-0.0778l0 -0.0125c0,-0.0175 0.009,-0.0264 0.0268,-0.0264z"/>
  <path id="2" class="fil1" d="M21.2436 5.8088c0.0588,0 0.1945,0.0008 0.4072,0.0023 0.0103,0 0.0167,0.0073 0.0192,0.0221l0 0.0221c0,0.037 -0.0105,0.0645 -0.0316,0.0825 0,0.0111 -0.0277,0.0234 -0.083,0.0368l-0.6724 0c-0.0164,0 -0.0245,-0.0123 -0.0245,-0.0368l0 -0.0049c0,-0.0552 0.0236,-0.0935 0.0706,-0.1146 0.007,-0.0031 0.0169,-0.0056 0.0293,-0.0072 0.147,-0.0015 0.2421,-0.0023 0.2854,-0.0023zm-0.3584 0.2561l0.7143 0c0.0262,0 0.0529,0.0154 0.0801,0.046 0.01,0.0083 0.0149,0.0337 0.0149,0.0758l0 0.1924c0,0.0463 -0.0106,0.0748 -0.0317,0.0854 -0.0178,0.0211 -0.0486,0.0316 -0.0925,0.0316l-0.6485 0c-0.0242,0 -0.0365,-0.0098 -0.0365,-0.0293l0 -0.0095c0,-0.0465 0.0098,-0.0765 0.0293,-0.0902 0.0228,-0.0228 0.0527,-0.0341 0.0902,-0.0341l0.4556 0c0.0228,0 0.034,-0.0178 0.034,-0.0537l0 -0.0025c0,-0.0359 -0.0121,-0.0537 -0.0363,-0.0537 -0.1737,0.0016 -0.2947,0.0025 -0.3631,0.0025 -0.0301,0 -0.082,-0.0008 -0.1559,-0.0025 -0.0137,0 -0.0326,-0.0139 -0.0562,-0.0417 -0.0164,-0.0192 -0.0245,-0.045 -0.0245,-0.0778l0 -0.0125c0,-0.0175 0.009,-0.0264 0.0268,-0.0264z"/>
  <path id="3" class="fil1" d="M10.6892 5.8088l0.1424 0c0.018,0 0.0269,0.0066 0.0269,0.0197l0 0.6455c0,0.0147 -0.0123,0.0221 -0.0369,0.0221l-0.1203 0c-0.0264,0 -0.0395,-0.0082 -0.0395,-0.0244l0 -0.6409c0,-0.0146 0.0092,-0.0219 0.0273,-0.0219z"/>
  <path id="4" class="fil1" d="M10.9981 5.8101l0.1074 0c0.0526,0 0.0907,0.0293 0.1148,0.0879 0.0038,0.0044 0.0501,0.0932 0.139,0.2662 0,0.0067 -0.0277,0.0621 -0.083,0.1659 -0.0051,0.012 -0.0106,0.0185 -0.0167,0.0196 -0.009,0 -0.0342,-0.0431 -0.0758,-0.1295l-0.1832 -0.3468c-0.0164,-0.0229 -0.0246,-0.0408 -0.0246,-0.0532 0.0023,-0.0067 0.0097,-0.0102 0.0221,-0.0102zm0.7665 0l0.1002 0c0.0124,0 0.0198,0.0034 0.0221,0.0102l0 0.0047c-0.0051,0.016 -0.0272,0.0591 -0.0663,0.129l-0.1486 0.2836c-0.0488,0.0959 -0.0928,0.179 -0.1318,0.2488 -0.0064,0.0064 -0.0219,0.0097 -0.0467,0.0097l-0.1169 0c-0.0228,0 -0.0341,-0.0033 -0.0341,-0.0097l0 -0.0072c0.0095,-0.0262 0.0535,-0.1125 0.1318,-0.259 0.1228,-0.2385 0.1888,-0.362 0.1976,-0.3707 0.0224,-0.0262 0.0532,-0.0395 0.0926,-0.0395z"/>
  <path id="5" class="fil1" d="M12.098 5.8101l0.6807 0c0.0178,0 0.0268,0.0098 0.0268,0.0293 0,0.0684 -0.0311,0.1118 -0.0932,0.13l-0.6955 0c-0.0147,0 -0.0221,-0.009 -0.0221,-0.0268l0 -0.0047c0,-0.0601 0.0254,-0.101 0.0758,-0.1228 0.0064,-0.0033 0.0156,-0.0049 0.0273,-0.0049zm0.0365 0.2697l0.4926 0c0.0179,0 0.0269,0.0074 0.0269,0.0221l0 0.0095c0,0.0445 -0.0262,0.0781 -0.0787,0.1008 -0.0061,0.0015 -0.0125,0.0023 -0.0192,0.0023l-0.3286 0c-0.0226,0 -0.034,0.0115 -0.034,0.0341l0 0.0489c0,0.0214 0.009,0.0321 0.0268,0.0321l0.4409 0c0.0779,0 0.1252,0.0328 0.1419,0.0979 0,0.0038 0.0008,0.0162 0.0025,0.037 0,0.0211 -0.0123,0.0316 -0.0365,0.0316l-0.6174 0c-0.0617,0 -0.0992,-0.009 -0.1126,-0.0269 -0.0295,-0.0237 -0.0442,-0.0581 -0.0442,-0.1031l0 -0.164c0,-0.0557 0.027,-0.0948 0.081,-0.1176 0.0208,-0.0031 0.0404,-0.0047 0.0586,-0.0047z"/>
  <path id="6" class="fil1" d="M14.6305 5.8088l0.5962 0c0.0573,0 0.0959,0.0221 0.1161,0.0667 0.0064,0.0134 0.0097,0.0314 0.0097,0.0542l0 0.4479c0,0.0589 -0.027,0.0968 -0.081,0.1138 -0.0157,0.0015 -0.0306,0.0023 -0.0447,0.0023l-0.1996 0c-0.0326,0 -0.0547,0.0008 -0.0661,0.0025 -0.0185,-0.0016 -0.0424,-0.0025 -0.0716,-0.0025l-0.2762 0c-0.0771,0 -0.1156,-0.0426 -0.1156,-0.128l0 -0.424c0,-0.0886 0.0442,-0.1328 0.1328,-0.1328zm0.0619 0.4854c0,0.0309 0.0156,0.0465 0.0467,0.0465l0.3621 0c0.038,0 0.057,-0.0115 0.057,-0.0341 0.0016,-0.016 0.0025,-0.0332 0.0025,-0.0519l0 -0.2245c0,-0.0376 -0.0066,-0.0565 -0.0197,-0.0565 0,-0.0029 -0.0083,-0.0046 -0.025,-0.0049l-0.3793 0c-0.0295,0 -0.0442,0.0131 -0.0442,0.0395l0 0.2858z"/>
  <path id="7" class="fil1" d="M15.5653 5.8101l0.037 0c0.0904,0 0.1357,0.0445 0.1357,0.1334l0 0.3626c0,0.0245 0.0164,0.0368 0.0493,0.0368l0.4419 0c0.0427,0 0.0742,0.0288 0.094,0.0864 0.0031,0.0092 0.0047,0.0223 0.0047,0.0393 -0.001,0.0182 -0.0083,0.0273 -0.0221,0.0273l-0.6542 0c-0.0537,0 -0.089,-0.0214 -0.1059,-0.0643l-0.0025 -0.0292 0 -0.5655c0,-0.018 0.0074,-0.027 0.0221,-0.027z"/>
  <path id="8" class="fil1" d="M16.4584 5.8088l0.0467 0c0.0562,0 0.0938,0.0244 0.1126,0.0734 0.0064,0.0188 0.0097,0.0336 0.0097,0.0442l0 0.362c0,0.0291 0.0105,0.0437 0.0316,0.0437l0.3865 0c0.0278,0 0.0417,-0.0146 0.0417,-0.0437l0 -0.3841c0,-0.0413 0.0293,-0.0724 0.0878,-0.0932 0.0109,-0.0015 0.0216,-0.0023 0.0323,-0.0023l0.0412 0c0.0229,0 0.0345,0.0089 0.0345,0.0269l0 0.5381c0,0.0581 -0.0319,0.0982 -0.0954,0.1198 -0.0126,0.0016 -0.0265,0.0025 -0.0417,0.0025l-0.5794 0c-0.0589,0 -0.0973,-0.0195 -0.1153,-0.0584 -0.0145,-0.0144 -0.0219,-0.0422 -0.0219,-0.0835l0 -0.509c0,-0.0242 0.0097,-0.0364 0.0291,-0.0364z"/>
  <path id="9" class="fil1" d="M17.5865 5.8088l0.6581 0c0.0128,0 0.0216,0.0049 0.0268,0.0149l0 0.0364c0,0.0348 -0.0172,0.0651 -0.0514,0.0907 -0.0278,0.0147 -0.0498,0.0221 -0.0661,0.0221l-0.1444 0c-0.0278,0 -0.0417,0.0113 -0.0417,0.0341l0 0.4599c0,0.0195 -0.0121,0.0293 -0.0364,0.0293l-0.1224 0c-0.0262,0 -0.0393,-0.0082 -0.0393,-0.0244l0 -0.4672c0,-0.0211 -0.0154,-0.0316 -0.0465,-0.0316l-0.2369 0c-0.0131,0 -0.0196,-0.0074 -0.0196,-0.0221l0 -0.0442c0,-0.0424 0.0293,-0.0743 0.0882,-0.0954 0.0105,-0.0015 0.0211,-0.0023 0.0316,-0.0023z"/>
  <path id="10" class="fil1" d="M18.4839 5.8088l0.1424 0c0.018,0 0.0269,0.0066 0.0269,0.0197l0 0.6455c0,0.0147 -0.0123,0.0221 -0.0369,0.0221l-0.1203 0c-0.0264,0 -0.0395,-0.0082 -0.0395,-0.0244l0 -0.6409c0,-0.0146 0.0092,-0.0219 0.0273,-0.0219z"/>
  <path id="11" class="fil1" d="M18.988 5.8088l0.5962 0c0.0573,0 0.0959,0.0221 0.1161,0.0667 0.0064,0.0134 0.0097,0.0314 0.0097,0.0542l0 0.4479c0,0.0589 -0.027,0.0968 -0.081,0.1138 -0.0157,0.0015 -0.0306,0.0023 -0.0447,0.0023l-0.1996 0c-0.0326,0 -0.0547,0.0008 -0.0661,0.0025 -0.0185,-0.0016 -0.0424,-0.0025 -0.0716,-0.0025l-0.2762 0c-0.0771,0 -0.1156,-0.0426 -0.1156,-0.128l0 -0.424c0,-0.0886 0.0442,-0.1328 0.1328,-0.1328zm0.0619 0.4854c0,0.0309 0.0156,0.0465 0.0467,0.0465l0.3621 0c0.038,0 0.057,-0.0115 0.057,-0.0341 0.0016,-0.016 0.0025,-0.0332 0.0025,-0.0519l0 -0.2245c0,-0.0376 -0.0066,-0.0565 -0.0197,-0.0565 0,-0.0029 -0.0083,-0.0046 -0.025,-0.0049l-0.3793 0c-0.0295,0 -0.0442,0.0131 -0.0442,0.0395l0 0.2858z"/>
  <path id="12" class="fil1" d="M19.9233 5.8101l0.1454 0c0.0236,0 0.0639,0.0339 0.1208,0.1014 0.103,0.1108 0.1894,0.2014 0.2595,0.2714 0.0057,0.0047 0.0114,0.0072 0.0172,0.0072 0.0116,0 0.0174,-0.009 0.0174,-0.0269l0 -0.2299c0,-0.0514 0.0139,-0.0851 0.0417,-0.1012 0.03,-0.0147 0.0571,-0.0221 0.0815,-0.0221l0.0417 0c0.0198,0 0.0296,0.0125 0.0296,0.037l0 0.6216c0,0.0182 -0.0074,0.0273 -0.0221,0.0273l-0.1653 0c-0.017,0 -0.0424,-0.0206 -0.0763,-0.0619 -0.0304,-0.0285 -0.0962,-0.0984 -0.1976,-0.2096 -0.0658,-0.0675 -0.1012,-0.1012 -0.1061,-0.1012l-0.0075 0c-0.008,0.0041 -0.0121,0.0107 -0.0121,0.0197l0 0.2148c-0.0018,0.0748 -0.012,0.1162 -0.0305,0.1241 -0.0183,0.0077 -0.0495,0.0124 -0.0933,0.0141l-0.0542 0c-0.0131,0 -0.0196,-0.0066 -0.0196,-0.0197l0 -0.1899c0,-0.0611 -0.0008,-0.1072 -0.0023,-0.1382 0.0015,-0.0313 0.0023,-0.0775 0.0023,-0.1382l0 -0.178c0,-0.0147 0.01,-0.0221 0.0298,-0.0221z"/>
  <path class="fil2" d="M13.3387 8.1632l3.1052 0c0.2456,0 0.4229,0.0852 0.5322,0.2567l1.4479 0.0094c0.0532,0 0.0862,0.0381 0.099,0.1141l0 0.1142c0,0.1912 -0.0543,0.3333 -0.1632,0.4262 0,0.0577 -0.1431,0.121 -0.429,0.1904l-0.8872 0c-0.0015,0.1884 -0.0086,0.3436 -0.0213,0.466l1.1369 0c0.1355,0 0.2733,0.0797 0.4136,0.2377 0.0517,0.0432 0.0771,0.1744 0.0771,0.3916l0 0.994c0,0.2394 -0.055,0.3866 -0.1642,0.4415 -0.0923,0.1092 -0.2513,0.1632 -0.4779,0.1632l-3.3506 0c-0.1252,0 -0.1885,-0.0507 -0.1885,-0.1514l0 -0.049c0,-0.2402 0.0509,-0.3949 0.1514,-0.466 0.1176,-0.1178 0.2724,-0.1761 0.4662,-0.1761l0.5476 0c-0.126,-0.2359 -0.2277,-0.4213 -0.3052,-0.5567 -0.1498,-0.002 -0.3438,-0.0055 -0.5816,-0.0109 -0.0711,0 -0.1683,-0.0718 -0.2901,-0.2156 -0.0187,-0.0219 -0.0353,-0.0453 -0.0498,-0.0706l-0.4813 0c-0.1023,0 -0.1538,0.0973 -0.1538,0.2927l0 1.0481c0,0.0677 -0.0338,0.1014 -0.1014,0.1014l-0.8822 0c-0.0754,0 -0.1135,-0.0475 -0.1135,-0.1414l0 -1.3931c0,-0.2621 0.1108,-0.4449 0.3316,-0.5473 0.0948,-0.0515 0.2013,-0.0771 0.3197,-0.0771l0.4458 0c0.4914,0 1.1902,-0.004 2.0968,-0.0117 0.0643,0 0.1024,-0.0516 0.1144,-0.154l0 -0.1155 -1.5263 0c-0.0846,0 -0.1269,-0.0635 -0.1269,-0.1904l0 -0.0253c0,-0.0224 0.0006,-0.0442 0.0022,-0.0655l-1.516 0c-0.0948,0 -0.1414,-0.0381 -0.1414,-0.1142l0 -0.039c0,-0.2715 0.0982,-0.4668 0.2943,-0.5878 0.1472,-0.059 0.2707,-0.0888 0.3698,-0.0888zm3.0902 2.4036c0.1051,0.2118 0.1999,0.398 0.2843,0.559l0.7269 0c0.1176,0 0.1761,-0.0922 0.1761,-0.2775l0 -0.0126c0,-0.1853 -0.0627,-0.2775 -0.1879,-0.2775l-0.9992 0.0087z"/>
  <path class="fil3" d="M14.4685 9.7401l3.6905 0c0.1355,0 0.2732,0.0797 0.4136,0.2378 0.0516,0.0431 0.0771,0.1743 0.0771,0.3916l0 0.994c0,0.2394 -0.0551,0.3865 -0.1643,0.4415 -0.0922,0.1092 -0.2512,0.1633 -0.4779,0.1633l-3.3505 0c-0.1252,0 -0.1886,-0.0508 -0.1886,-0.1515l0 -0.0489c0,-0.2403 0.0508,-0.3951 0.1513,-0.4661 0.1178,-0.1178 0.2724,-0.176 0.4662,-0.176l2.354 0c0.1177,0 0.176,-0.0923 0.176,-0.2775l0 -0.0127c0,-0.1853 -0.0626,-0.2775 -0.1879,-0.2775 -0.8974,0.0086 -1.5225,0.0127 -1.8761,0.0127 -0.1557,0 -0.4238,-0.0041 -0.8053,-0.0127 -0.071,0 -0.1683,-0.0718 -0.29,-0.2156 -0.0846,-0.0989 -0.1269,-0.2326 -0.1269,-0.4018l0 -0.0643c0,-0.0906 0.0465,-0.1363 0.1387,-0.1363zm1.8516 -1.3228c0.3036,0 1.0049,0.0041 2.1037,0.0118 0.0532,0 0.0862,0.0381 0.0989,0.1141l0 0.1142c0,0.1913 -0.0542,0.3334 -0.1632,0.4263 0,0.0576 -0.1431,0.121 -0.429,0.1903l-3.4739 0c-0.0846,0 -0.1269,-0.0634 -0.1269,-0.1903l0 -0.0252c0,-0.2851 0.1219,-0.4831 0.3645,-0.5922 0.0365,-0.0159 0.0872,-0.0288 0.1515,-0.0371 0.7596,-0.0078 1.251,-0.0118 1.4744,-0.0118z"/>
  <path class="fil4" d="M13.3386 8.1632l3.1053 0c0.3053,0 0.5049,0.1318 0.5997,0.3967l0 0.6385c0,0.5127 -0.0381,0.802 -0.1142,0.868 -0.0677,0.137 -0.2302,0.2055 -0.4855,0.2055 -0.0694,0.0262 -0.104,0.0643 -0.104,0.1142 0.2707,0.5515 0.4796,0.9516 0.6267,1.1995l0.0128 0.0643c-0.0169,0.0397 -0.0339,0.0609 -0.0499,0.0643l-0.8822 0c-0.0881,0 -0.2115,-0.17 -0.3723,-0.5108 -0.2833,-0.533 -0.4542,-0.8316 -0.51,-0.8941 -0.0433,-0.0246 -0.0855,-0.0373 -0.1262,-0.0373l-1.1132 0c-0.1024,0 -0.1539,0.0973 -0.1539,0.2927l0 1.0481c0,0.0677 -0.0338,0.1014 -0.1014,0.1014l-0.8822 0c-0.0753,0 -0.1134,-0.0474 -0.1134,-0.1413l0 -1.3931c0,-0.2621 0.1108,-0.4449 0.3316,-0.5472 0.0947,-0.0516 0.2014,-0.077 0.3197,-0.077l0.4458 0c0.4915,0 1.1902,-0.0042 2.0969,-0.0118 0.0643,0 0.1024,-0.0516 0.1143,-0.1539l0 -0.2309c0,-0.1099 -0.0727,-0.1657 -0.2182,-0.1657l-2.9488 0c-0.0948,0 -0.1413,-0.0381 -0.1413,-0.1142l0 -0.039c0,-0.2715 0.0982,-0.4668 0.2943,-0.5879 0.1472,-0.0591 0.2707,-0.0887 0.3697,-0.0887z"/>
  <path class="fil5" d="M14.4685 9.7402l2.5536 0c-0.0187,0.1802 -0.0496,0.2889 -0.0926,0.3262 -0.0677,0.137 -0.2302,0.2055 -0.4856,0.2055 -0.0694,0.0264 -0.104,0.0643 -0.104,0.1142l0.0891 0.1807c-0.3817,0.0026 -0.674,0.004 -0.8769,0.004l-0.2237 -0.0017c-0.0817,-0.1426 -0.1363,-0.2294 -0.1634,-0.2599 -0.0433,-0.0245 -0.0856,-0.0373 -0.1261,-0.0373l-0.6321 0c-0.0515,-0.0891 -0.0771,-0.1993 -0.0771,-0.3311l0 -0.0643c0,-0.0906 0.0465,-0.1363 0.1387,-0.1363zm1.1651 1.3856l1.0796 0c0.0985,0.1881 0.183,0.3413 0.2534,0.4599l0.0126 0.0643c-0.0168,0.0398 -0.0339,0.0609 -0.0498,0.0643l-0.8822 0c-0.0882,0 -0.2115,-0.17 -0.3723,-0.5109l-0.0413 -0.0775zm1.3424 -2.7059c0.0265,0.0416 0.0492,0.0883 0.0677,0.1401l0 0.6385 -0.0003 0.0757 -1.0605 0 0 -0.1155c0,-0.1099 -0.0728,-0.1657 -0.2183,-0.1657l-1.4327 0c0.0176,-0.25 0.1389,-0.4262 0.3624,-0.5268 0.0364,-0.0159 0.0871,-0.0287 0.1514,-0.037 0.7597,-0.0077 1.251,-0.0119 1.4744,-0.0119 0.1374,0 0.356,0.0009 0.6559,0.0025z"/>
 </g>
</svg>
