<?xml version="1.0" encoding="UTF-8"?>
<!DOCTYPE svg PUBLIC "-//W3C//DTD SVG 1.1//EN" "http://www.w3.org/Graphics/SVG/1.1/DTD/svg11.dtd">
<!-- Creator: CorelDRAW 2017 -->
<svg xmlns="http://www.w3.org/2000/svg" xml:space="preserve" width="122.343mm" height="65.2992mm" version="1.1" style="shape-rendering:geometricPrecision; text-rendering:geometricPrecision; image-rendering:optimizeQuality; fill-rule:evenodd; clip-rule:evenodd"
viewBox="0 0 20.5759 10.9821"
 xmlns:xlink="http://www.w3.org/1999/xlink">
 <defs>
  <style type="text/css">
   <![CDATA[
    .fil0 {fill:#5B5B5B}
    .fil1 {fill:#FEFEFE;fill-rule:nonzero}
    .fil4 {fill:#C5C6C6;fill-rule:nonzero}
    .fil3 {fill:#B2B3B3;fill-rule:nonzero}
    .fil2 {fill:#F5A36D;fill-rule:nonzero}
   ]]>
  </style>
 </defs>
 <g id="Слой_x0020_1">
  <metadata id="CorelCorpID_0Corel-Layer"/>
  <rect class="fil0" width="20.5759" height="10.9821"/>
  <g id="_2961042056192">
   <path class="fil1" d="M3.7099 4.2556l0 -0.2417 0.4277 0c0.0998,0 0.1692,-0.0136 0.2089,-0.0409 0.0391,-0.0273 0.0589,-0.0725 0.0589,-0.137 0,-0.0824 -0.0806,-0.1475 -0.2417,-0.1959 -0.0484,-0.0143 -0.0868,-0.026 -0.1147,-0.0347 -0.1581,-0.0521 -0.2672,-0.1103 -0.3254,-0.176 -0.0589,-0.0651 -0.088,-0.1543 -0.088,-0.2665 0,-0.1686 0.0552,-0.2969 0.1661,-0.3849 0.1109,-0.0886 0.2715,-0.1326 0.4816,-0.1326l0.4196 0 0 0.2417 -0.3632 0c-0.0595,0 -0.106,0.0105 -0.1401,0.0316 -0.0341,0.0211 -0.0508,0.0508 -0.0508,0.088 0,0.0669 0.0707,0.1215 0.2114,0.1655 0.031,0.0105 0.0552,0.0186 0.0707,0.0235 0.1717,0.0558 0.2882,0.119 0.349,0.1903 0.0601,0.0713 0.0905,0.1717 0.0905,0.3012 0,0.1766 -0.0552,0.3155 -0.1661,0.4165 -0.1109,0.101 -0.264,0.1519 -0.4587,0.1519l-0.5355 0zm1.844 0c-0.1246,0 -0.2126,-0.0273 -0.264,-0.0824 -0.0514,-0.0552 -0.0769,-0.1506 -0.0769,-0.2863l0 -0.8727c0,-0.1357 0.0254,-0.2312 0.0769,-0.2864 0.0514,-0.0552 0.1395,-0.0824 0.264,-0.0824l0.7494 0 0 0.2417 -0.3986 0c-0.0669,0 -0.1116,0.0118 -0.1339,0.0359 -0.0223,0.0242 -0.0335,0.0725 -0.0335,0.1438l0 0.2628 0.5058 0 0 0.2417 -0.5058 0 0 0.2684c0,0.07 0.0112,0.1165 0.0328,0.1395 0.0217,0.0229 0.0663,0.0347 0.1345,0.0347l0.424 0 0 0.2417 -0.7748 0zm2.1402 -0.7878c0,-0.2188 -0.0223,-0.3837 -0.0663,-0.494 -0.0446,-0.1097 -0.1116,-0.1649 -0.2014,-0.1649 -0.0837,0 -0.1463,0.0521 -0.1872,0.1568 -0.0415,0.1048 -0.062,0.2628 -0.062,0.4748 0,0.22 0.0223,0.3855 0.0676,0.4965 0.0446,0.1109 0.1116,0.1661 0.2002,0.1661 0.0837,0 0.1463,-0.0527 0.1872,-0.1581 0.0415,-0.1054 0.062,-0.264 0.062,-0.4773zm-0.2566 0.8473c-0.2362,0 -0.4326,-0.0862 -0.5895,-0.2578 -0.1574,-0.1723 -0.2361,-0.3874 -0.2361,-0.6465 0,-0.2473 0.075,-0.445 0.225,-0.5944 0.15,-0.1488 0.3502,-0.2231 0.6006,-0.2231 0.2349,0 0.4302,0.0861 0.587,0.2591 0.1568,0.1723 0.2349,0.388 0.2349,0.6471 0,0.2498 -0.0744,0.4481 -0.2225,0.595 -0.1481,0.1469 -0.3477,0.2207 -0.5994,0.2207z"/>
   <path class="fil2" d="M8.5842 4.2258l0 -0.1302c0.0564,0.0142 0.1122,0.0254 0.1667,0.0328 0.0539,0.0081 0.1085,0.0118 0.163,0.0118 0.1209,0 0.2114,-0.0198 0.2709,-0.0601 0.0601,-0.0397 0.0899,-0.1004 0.0899,-0.1828 0,-0.1066 -0.0843,-0.2052 -0.2535,-0.2956l-0.0198 -0.0105 -0.101 -0.0564c-0.132,-0.0713 -0.2244,-0.1395 -0.2764,-0.2045 -0.0521,-0.0644 -0.0781,-0.1407 -0.0781,-0.2275 0,-0.1506 0.0539,-0.2671 0.1618,-0.3508 0.1072,-0.0837 0.2591,-0.1252 0.4549,-0.1252 0.0428,0 0.0893,0.0025 0.1407,0.0074 0.0514,0.005 0.1109,0.0124 0.1791,0.0223l0 0.1339c-0.1041,-0.0124 -0.1754,-0.0205 -0.2132,-0.0242 -0.0378,-0.0037 -0.0657,-0.0056 -0.0824,-0.0056 -0.1041,0 -0.1835,0.018 -0.2386,0.0546 -0.0552,0.0366 -0.0824,0.0886 -0.0824,0.1562 0,0.0849 0.075,0.1705 0.2244,0.2566l0.0217 0.0124 0.1593 0.0967c0.1432,0.083 0.2374,0.1562 0.282,0.2188 0.0453,0.062 0.0676,0.1395 0.0676,0.2312 0,0.1531 -0.0564,0.2715 -0.1686,0.3564 -0.1128,0.0849 -0.2721,0.1271 -0.4779,0.1271 -0.0564,0 -0.1171,-0.0037 -0.1816,-0.0112 -0.0638,-0.0074 -0.1333,-0.0186 -0.2083,-0.0335zm1.7764 -0.1072c0.0583,0.0068 0.1035,0.0118 0.1364,0.0143 0.0329,0.0025 0.0607,0.0037 0.0837,0.0037 0.1698,0 0.2963,-0.0484 0.3799,-0.145 0.0837,-0.0973 0.1252,-0.2442 0.1252,-0.4419 0,-0.2566 -0.0452,-0.4456 -0.1364,-0.5665 -0.0911,-0.1209 -0.2337,-0.1816 -0.4289,-0.1816l-0.1599 0 0 1.3171zm0 0.137l0 0.6471 -0.3533 0 0 -2.2388 0.5535 0c0.2672,0 0.4816,0.075 0.6434,0.225 0.1618,0.15 0.2423,0.3471 0.2423,0.5901 0,0.2374 -0.0775,0.4289 -0.233,0.5758 -0.1556,0.1463 -0.3607,0.2194 -0.6149,0.2194 -0.039,0 -0.0961,-0.0037 -0.1729,-0.0112 -0.0298,-0.0037 -0.0514,-0.0062 -0.0651,-0.0074zm1.42 -2.0466c0,-0.057 0.0205,-0.106 0.0607,-0.1463 0.0409,-0.0403 0.0905,-0.0607 0.1481,-0.0607 0.0558,0 0.1041,0.0198 0.1438,0.0595 0.0403,0.0397 0.0601,0.0893 0.0601,0.1475 0,0.0564 -0.0198,0.1047 -0.0589,0.145 -0.0397,0.0403 -0.088,0.0607 -0.145,0.0607 -0.0576,0 -0.1072,-0.0205 -0.1481,-0.0607 -0.0403,-0.0403 -0.0607,-0.0886 -0.0607,-0.145zm0.0298 0.4549l0.3533 0 0 1.5917 -0.3533 0 0 -1.5917zm1.8037 0.137c-0.0446,-0.0056 -0.0837,-0.0105 -0.1165,-0.0136 -0.0322,-0.0031 -0.0614,-0.0043 -0.0868,-0.0043 -0.1748,0 -0.3056,0.0589 -0.3917,0.176 -0.0868,0.1178 -0.1302,0.2944 -0.1302,0.5306 0,0.212 0.0471,0.3694 0.1407,0.4729 0.0942,0.1035 0.2368,0.1556 0.4283,0.1556l0.1581 0 -0.0018 -1.3171zm0 -0.1376l0.0018 -1.0072 0.3514 0 0 2.5995 -0.5535 0c-0.2671,0 -0.4816,-0.075 -0.6434,-0.2244 -0.1618,-0.1494 -0.2423,-0.3465 -0.2423,-0.5907 0,-0.2461 0.075,-0.4395 0.2244,-0.582 0.1494,-0.1419 0.3539,-0.2132 0.613,-0.2132 0.0279,0 0.0614,0.0012 0.1004,0.0043 0.0397,0.0031 0.0886,0.0075 0.1481,0.0136zm0.851 0.287c0,-0.1184 0.0192,-0.1959 0.057,-0.2318 0.0378,-0.0366 0.1184,-0.0545 0.2399,-0.0545l0.7599 0 0 0.1376 -0.5436 0c-0.0638,0 -0.1066,0.0093 -0.1283,0.0273 -0.0211,0.018 -0.0316,0.0514 -0.0316,0.0998l0 0.401 0.5764 0 0 0.1562 -0.5764 0 0 0.507c0,0.0483 0.0112,0.0812 0.0329,0.0986 0.0217,0.018 0.0725,0.0266 0.1525,0.0266l0.5361 0 0 0.1376 -0.8337 0c-0.0893,0 -0.1519,-0.0186 -0.1878,-0.0564 -0.0353,-0.0372 -0.0533,-0.114 -0.0533,-0.23l0 -1.019zm1.8043 1.3053l-0.3533 0 0 -1.5917 0.6384 0c0.199,0 0.3496,0.0372 0.4531,0.1122 0.1029,0.075 0.1543,0.1841 0.1543,0.3266 0,0.1041 -0.031,0.1897 -0.093,0.256 -0.062,0.0663 -0.1475,0.1066 -0.2566,0.1196l0.4128 0.7772 -0.424 0 -0.3793 -0.7952c0.1283,-0.0025 0.2225,-0.0291 0.282,-0.08 0.0601,-0.0508 0.0899,-0.1308 0.0899,-0.2399 0,-0.1184 -0.0291,-0.2058 -0.088,-0.2622 -0.0589,-0.0564 -0.1494,-0.0843 -0.2727,-0.0843l-0.1636 0 0 1.4615z"/>
  </g>
  <g id="_2961042069312">
   <polygon class="fil2" points="11.869,7.2362 11.5596,7.149 11.0765,6.1299 11.1872,5.983 "/>
   <polygon class="fil2" points="11.0939,7.0179 10.8404,6.4432 10.998,6.234 11.4121,7.1075 "/>
   <polygon class="fil1" points="10.45,6.5055 10.6551,6.4985 10.473,6.7401 "/>
   <polygon class="fil2" points="10.7457,6.3784 10.4386,6.3888 10.4081,6.0772 10.9066,6.1649 "/>
   <polygon class="fil2" points="10.365,6.8127 9.6962,6.6244 10.2972,6.1204 "/>
   <polygon class="fil2" points="10.3332,6.9256 9.9591,7.4219 9.6744,6.7401 "/>
   <polygon class="fil3" points="10.3876,7.0439 10.4341,7.5191 10.0537,7.487 "/>
   <polygon class="fil3" points="10.4957,6.9713 10.9374,7.0957 10.5437,7.4621 "/>
   <polygon class="fil1" points="10.5274,6.8585 10.7608,6.5488 10.9499,6.9774 "/>
   <polygon class="fil2" points="10.9857,6.0598 10.3962,5.9561 10.3661,5.6487 11.1015,5.9062 "/>
   <polygon class="fil2" points="10.2526,5.6654 10.2836,5.9815 9.5619,6.5866 9.0887,6.4534 "/>
   <polygon class="fil2" points="9.0694,6.5698 9.5326,6.7002 9.8787,7.5286 9.7117,7.7502 "/>
   <polygon class="fil2" points="9.8043,7.8177 9.9704,7.5975 10.4457,7.6376 10.4773,7.9603 "/>
   <path class="fil2" d="M10.5 8.1918l-1.1198 0c-0.1458,0 -0.248,-0.0304 -0.3067,-0.0921 -0.0577,-0.0607 -0.0871,-0.1863 -0.0871,-0.3756l0 -1.0648 0.6488 1.1924 -0.0533 0.0707c-0.0194,0.0258 -0.0149,0.0625 0.01,0.0819 0.0186,0.0146 0.0434,0.0155 0.0628,0.0042 0.0066,-0.0038 0.0126,-0.009 0.0175,-0.0155l0.0543 -0.072 0.7628 0.1617 0.0107 0.1091z"/>
   <path class="fil2" d="M11.8742 7.3594l0 0.3647c0,0.1893 -0.0293,0.3148 -0.0871,0.3756 -0.0587,0.0617 -0.1609,0.0921 -0.3067,0.0921l-0.8653 0 -0.0135 -0.1374 0.9305 -0.7912 0.342 0.0963z"/>
   <path class="fil2" d="M10.5598 5.5923l0.8295 0c0.1984,0 0.33,0.0293 0.3918,0.0891 0.0618,0.0587 0.0931,0.1853 0.0931,0.3786l0 0.9437 -0.6106 -1.1221 0.0151 -0.0199c0.0194,-0.0258 0.015,-0.0625 -0.01,-0.082 -0.025,-0.0196 -0.0613,-0.0144 -0.0804,0.0113l-0.0128 0.017 -0.6157 -0.2157z"/>
   <path class="fil2" d="M8.9864 6.06c0,-0.1934 0.0314,-0.3199 0.0931,-0.3786 0.0617,-0.0597 0.1933,-0.0891 0.3917,-0.0891l0.6835 0 -1.1683 0.791 0 -0.3233z"/>
   <polygon class="fil2" points="10.588,7.9147 10.5578,7.6062 11.0672,7.1322 11.3986,7.2255 "/>
  </g>
  <path class="fil4" d="M16.4142 10.3528l0.1913 0c0.0188,0 0.0311,0.0081 0.0369,0.0244l0 0.0394c0,0.0316 -0.0024,0.0494 -0.007,0.0535 -0.0042,0.0084 -0.0142,0.0127 -0.0299,0.0127 -0.0043,0.0016 -0.0064,0.004 -0.0064,0.007 0.0167,0.034 0.0295,0.0586 0.0386,0.0739l0.0008 0.004c-0.001,0.0024 -0.0021,0.0038 -0.0031,0.004l-0.0544 0c-0.0054,0 -0.013,-0.0105 -0.0229,-0.0315 -0.0175,-0.0328 -0.028,-0.0512 -0.0314,-0.0551 -0.0027,-0.0015 -0.0053,-0.0023 -0.0078,-0.0023l-0.0686 0c-0.0063,0 -0.0095,0.006 -0.0095,0.018l0 0.0646c0,0.0042 -0.0021,0.0063 -0.0063,0.0063l-0.0544 0c-0.0046,0 -0.007,-0.0029 -0.007,-0.0087l0 -0.0858c0,-0.0162 0.0068,-0.0274 0.0204,-0.0337 0.0058,-0.0032 0.0124,-0.0047 0.0197,-0.0047l0.0275 0c0.0303,0 0.0733,-0.0003 0.1292,-0.0007 0.004,0 0.0063,-0.0032 0.007,-0.0095l0 -0.0142c0,-0.0068 -0.0045,-0.0102 -0.0135,-0.0102l-0.1817 0c-0.0058,0 -0.0087,-0.0024 -0.0087,-0.007l0 -0.0024c0,-0.0167 0.006,-0.0288 0.0181,-0.0362 0.0091,-0.0036 0.0167,-0.0055 0.0228,-0.0055z"/>
  <path id="1" class="fil4" d="M17.7181 10.3528c0.0187,0 0.0619,0.0003 0.1296,0.0007 0.0033,0 0.0053,0.0024 0.0061,0.007l0 0.007c0,0.0118 -0.0033,0.0205 -0.0101,0.0263 0,0.0035 -0.0088,0.0075 -0.0264,0.0117l-0.214 0c-0.0052,0 -0.0078,-0.0039 -0.0078,-0.0117l0 -0.0016c0,-0.0176 0.0075,-0.0298 0.0225,-0.0365 0.0022,-0.001 0.0054,-0.0018 0.0093,-0.0023 0.0468,-0.0005 0.0771,-0.0007 0.0908,-0.0007zm-0.1141 0.0815l0.2274 0c0.0083,0 0.0168,0.0049 0.0255,0.0146 0.0032,0.0027 0.0047,0.0107 0.0047,0.0241l0 0.0612c0,0.0147 -0.0034,0.0238 -0.0101,0.0272 -0.0057,0.0067 -0.0155,0.0101 -0.0294,0.0101l-0.2064 0c-0.0077,0 -0.0116,-0.0031 -0.0116,-0.0093l0 -0.003c0,-0.0148 0.0031,-0.0243 0.0093,-0.0287 0.0072,-0.0072 0.0168,-0.0108 0.0287,-0.0108l0.145 0c0.0072,0 0.0108,-0.0057 0.0108,-0.0171l0 -0.0008c0,-0.0114 -0.0039,-0.0171 -0.0116,-0.0171 -0.0553,0.0005 -0.0938,0.0008 -0.1156,0.0008 -0.0096,0 -0.0261,-0.0003 -0.0496,-0.0008 -0.0044,0 -0.0104,-0.0044 -0.0179,-0.0133 -0.0052,-0.0061 -0.0078,-0.0143 -0.0078,-0.0248l0 -0.004c0,-0.0056 0.0029,-0.0084 0.0085,-0.0084z"/>
  <path id="2" class="fil4" d="M20.0702 10.3528c0.0187,0 0.0619,0.0003 0.1296,0.0007 0.0033,0 0.0053,0.0024 0.0061,0.007l0 0.007c0,0.0118 -0.0033,0.0205 -0.0101,0.0263 0,0.0035 -0.0088,0.0075 -0.0264,0.0117l-0.214 0c-0.0052,0 -0.0078,-0.0039 -0.0078,-0.0117l0 -0.0016c0,-0.0176 0.0075,-0.0298 0.0225,-0.0365 0.0022,-0.001 0.0054,-0.0018 0.0093,-0.0023 0.0468,-0.0005 0.0771,-0.0007 0.0908,-0.0007zm-0.1141 0.0815l0.2274 0c0.0083,0 0.0168,0.0049 0.0255,0.0146 0.0032,0.0027 0.0047,0.0107 0.0047,0.0241l0 0.0612c0,0.0147 -0.0034,0.0238 -0.0101,0.0272 -0.0057,0.0067 -0.0155,0.0101 -0.0294,0.0101l-0.2064 0c-0.0077,0 -0.0116,-0.0031 -0.0116,-0.0093l0 -0.003c0,-0.0148 0.0031,-0.0243 0.0093,-0.0287 0.0072,-0.0072 0.0168,-0.0108 0.0287,-0.0108l0.145 0c0.0072,0 0.0108,-0.0057 0.0108,-0.0171l0 -0.0008c0,-0.0114 -0.0039,-0.0171 -0.0116,-0.0171 -0.0553,0.0005 -0.0938,0.0008 -0.1156,0.0008 -0.0096,0 -0.0261,-0.0003 -0.0496,-0.0008 -0.0044,0 -0.0104,-0.0044 -0.0179,-0.0133 -0.0052,-0.0061 -0.0078,-0.0143 -0.0078,-0.0248l0 -0.004c0,-0.0056 0.0029,-0.0084 0.0085,-0.0084z"/>
  <path id="3" class="fil4" d="M16.7105 10.3528l0.0453 0c0.0057,0 0.0085,0.0021 0.0085,0.0063l0 0.2055c0,0.0047 -0.0039,0.007 -0.0117,0.007l-0.0383 0c-0.0084,0 -0.0126,-0.0026 -0.0126,-0.0078l0 -0.204c0,-0.0046 0.0029,-0.007 0.0087,-0.007z"/>
  <path id="4" class="fil4" d="M16.8089 10.3532l0.0342 0c0.0167,0 0.0289,0.0093 0.0365,0.028 0.0012,0.0014 0.0159,0.0297 0.0442,0.0847 0,0.0021 -0.0088,0.0197 -0.0264,0.0528 -0.0016,0.0038 -0.0034,0.0059 -0.0053,0.0063 -0.0029,0 -0.0109,-0.0137 -0.0241,-0.0412l-0.0583 -0.1104c-0.0052,-0.0073 -0.0078,-0.013 -0.0078,-0.0169 0.0007,-0.0021 0.0031,-0.0032 0.007,-0.0032zm0.244 0l0.0319 0c0.004,0 0.0063,0.0011 0.007,0.0032l0 0.0015c-0.0016,0.0051 -0.0086,0.0188 -0.0211,0.0411l-0.0473 0.0903c-0.0155,0.0305 -0.0295,0.057 -0.0419,0.0792 -0.002,0.002 -0.007,0.0031 -0.0149,0.0031l-0.0372 0c-0.0072,0 -0.0108,-0.001 -0.0108,-0.0031l0 -0.0023c0.003,-0.0083 0.017,-0.0358 0.0419,-0.0824 0.0391,-0.0759 0.0601,-0.1152 0.0629,-0.118 0.0071,-0.0083 0.0169,-0.0125 0.0295,-0.0125z"/>
  <path id="5" class="fil4" d="M17.159 10.3532l0.2167 0c0.0057,0 0.0086,0.0031 0.0086,0.0093 0,0.0218 -0.0099,0.0356 -0.0297,0.0414l-0.2214 0c-0.0047,0 -0.007,-0.0029 -0.007,-0.0086l0 -0.0015c0,-0.0191 0.0081,-0.0322 0.0241,-0.0391 0.002,-0.001 0.0049,-0.0016 0.0087,-0.0016zm0.0116 0.0858l0.1568 0c0.0057,0 0.0085,0.0024 0.0085,0.007l0 0.003c0,0.0142 -0.0083,0.0249 -0.0251,0.0321 -0.0019,0.0005 -0.004,0.0007 -0.0061,0.0007l-0.1046 0c-0.0072,0 -0.0108,0.0036 -0.0108,0.0108l0 0.0156c0,0.0068 0.0029,0.0102 0.0085,0.0102l0.1403 0c0.0248,0 0.0399,0.0104 0.0452,0.0312 0,0.0012 0.0003,0.0051 0.0008,0.0118 0,0.0067 -0.0039,0.0101 -0.0116,0.0101l-0.1965 0c-0.0197,0 -0.0316,-0.0029 -0.0359,-0.0085 -0.0094,-0.0076 -0.0141,-0.0185 -0.0141,-0.0328l0 -0.0522c0,-0.0177 0.0086,-0.0302 0.0258,-0.0374 0.0066,-0.001 0.0129,-0.0015 0.0187,-0.0015z"/>
  <path id="6" class="fil4" d="M17.9651 10.3528l0.1898 0c0.0182,0 0.0305,0.007 0.0369,0.0212 0.002,0.0043 0.0031,0.01 0.0031,0.0173l0 0.1426c0,0.0188 -0.0086,0.0308 -0.0258,0.0362 -0.005,0.0005 -0.0097,0.0007 -0.0142,0.0007l-0.0635 0c-0.0104,0 -0.0174,0.0003 -0.0211,0.0008 -0.0059,-0.0005 -0.0135,-0.0008 -0.0228,-0.0008l-0.0879 0c-0.0245,0 -0.0368,-0.0136 -0.0368,-0.0408l0 -0.135c0,-0.0282 0.0141,-0.0423 0.0423,-0.0423zm0.0197 0.1545c0,0.0099 0.005,0.0148 0.0149,0.0148l0.1153 0c0.0121,0 0.0181,-0.0036 0.0181,-0.0108 0.0005,-0.0051 0.0008,-0.0106 0.0008,-0.0165l0 -0.0715c0,-0.012 -0.0021,-0.018 -0.0063,-0.018 0,-0.0009 -0.0027,-0.0015 -0.008,-0.0016l-0.1207 0c-0.0094,0 -0.0141,0.0042 -0.0141,0.0126l0 0.091z"/>
  <path id="7" class="fil4" d="M18.2627 10.3532l0.0118 0c0.0288,0 0.0432,0.0142 0.0432,0.0425l0 0.1154c0,0.0078 0.0052,0.0117 0.0157,0.0117l0.1406 0c0.0136,0 0.0236,0.0092 0.0299,0.0275 0.001,0.0029 0.0015,0.0071 0.0015,0.0125 -0.0003,0.0058 -0.0027,0.0087 -0.007,0.0087l-0.2082 0c-0.0171,0 -0.0284,-0.0068 -0.0337,-0.0205l-0.0008 -0.0093 0 -0.18c0,-0.0057 0.0023,-0.0086 0.007,-0.0086z"/>
  <path id="8" class="fil4" d="M18.547 10.3528l0.0149 0c0.0179,0 0.0299,0.0078 0.0359,0.0233 0.002,0.006 0.0031,0.0107 0.0031,0.0141l0 0.1152c0,0.0093 0.0033,0.0139 0.0101,0.0139l0.123 0c0.0089,0 0.0133,-0.0046 0.0133,-0.0139l0 -0.1223c0,-0.0131 0.0093,-0.023 0.0279,-0.0297 0.0035,-0.0005 0.0069,-0.0007 0.0103,-0.0007l0.0131 0c0.0073,0 0.011,0.0028 0.011,0.0085l0 0.1713c0,0.0185 -0.0102,0.0313 -0.0304,0.0382 -0.004,0.0005 -0.0084,0.0008 -0.0133,0.0008l-0.1844 0c-0.0188,0 -0.031,-0.0062 -0.0367,-0.0186 -0.0046,-0.0046 -0.007,-0.0135 -0.007,-0.0266l0 -0.162c0,-0.0077 0.0031,-0.0116 0.0093,-0.0116z"/>
  <path id="9" class="fil4" d="M18.9061 10.3528l0.2095 0c0.0041,0 0.0069,0.0016 0.0085,0.0047l0 0.0116c0,0.0111 -0.0055,0.0207 -0.0164,0.0289 -0.0089,0.0047 -0.0158,0.007 -0.0211,0.007l-0.046 0c-0.0089,0 -0.0133,0.0036 -0.0133,0.0108l0 0.1464c0,0.0062 -0.0039,0.0093 -0.0116,0.0093l-0.039 0c-0.0083,0 -0.0125,-0.0026 -0.0125,-0.0078l0 -0.1487c0,-0.0067 -0.0049,-0.0101 -0.0148,-0.0101l-0.0754 0c-0.0042,0 -0.0063,-0.0024 -0.0063,-0.007l0 -0.0141c0,-0.0135 0.0093,-0.0237 0.0281,-0.0304 0.0033,-0.0005 0.0067,-0.0007 0.0101,-0.0007z"/>
  <path id="10" class="fil4" d="M19.1917 10.3528l0.0453 0c0.0057,0 0.0085,0.0021 0.0085,0.0063l0 0.2055c0,0.0047 -0.0039,0.007 -0.0117,0.007l-0.0383 0c-0.0084,0 -0.0126,-0.0026 -0.0126,-0.0078l0 -0.204c0,-0.0046 0.0029,-0.007 0.0087,-0.007z"/>
  <path id="11" class="fil4" d="M19.3522 10.3528l0.1898 0c0.0182,0 0.0305,0.007 0.0369,0.0212 0.002,0.0043 0.0031,0.01 0.0031,0.0173l0 0.1426c0,0.0188 -0.0086,0.0308 -0.0258,0.0362 -0.005,0.0005 -0.0097,0.0007 -0.0142,0.0007l-0.0635 0c-0.0104,0 -0.0174,0.0003 -0.0211,0.0008 -0.0059,-0.0005 -0.0135,-0.0008 -0.0228,-0.0008l-0.0879 0c-0.0245,0 -0.0368,-0.0136 -0.0368,-0.0408l0 -0.135c0,-0.0282 0.0141,-0.0423 0.0423,-0.0423zm0.0197 0.1545c0,0.0099 0.005,0.0148 0.0149,0.0148l0.1153 0c0.0121,0 0.0181,-0.0036 0.0181,-0.0108 0.0005,-0.0051 0.0008,-0.0106 0.0008,-0.0165l0 -0.0715c0,-0.012 -0.0021,-0.018 -0.0063,-0.018 0,-0.0009 -0.0027,-0.0015 -0.008,-0.0016l-0.1207 0c-0.0094,0 -0.0141,0.0042 -0.0141,0.0126l0 0.091z"/>
  <path id="12" class="fil4" d="M19.6499 10.3532l0.0463 0c0.0075,0 0.0203,0.0108 0.0385,0.0323 0.0328,0.0353 0.0603,0.0641 0.0826,0.0864 0.0018,0.0015 0.0036,0.0023 0.0055,0.0023 0.0037,0 0.0055,-0.0029 0.0055,-0.0086l0 -0.0732c0,-0.0164 0.0044,-0.0271 0.0133,-0.0322 0.0095,-0.0047 0.0182,-0.007 0.026,-0.007l0.0133 0c0.0063,0 0.0094,0.004 0.0094,0.0118l0 0.1979c0,0.0058 -0.0023,0.0087 -0.007,0.0087l-0.0526 0c-0.0054,0 -0.0135,-0.0066 -0.0243,-0.0197 -0.0097,-0.0091 -0.0306,-0.0313 -0.0629,-0.0667 -0.0209,-0.0215 -0.0322,-0.0322 -0.0338,-0.0322l-0.0024 0c-0.0026,0.0013 -0.0039,0.0034 -0.0039,0.0063l0 0.0684c-0.0006,0.0238 -0.0038,0.037 -0.0097,0.0395 -0.0058,0.0024 -0.0157,0.004 -0.0297,0.0045l-0.0173 0c-0.0042,0 -0.0063,-0.0021 -0.0063,-0.0063l0 -0.0604c0,-0.0194 -0.0003,-0.0341 -0.0007,-0.044 0.0005,-0.0099 0.0007,-0.0246 0.0007,-0.044l0 -0.0566c0,-0.0047 0.0032,-0.007 0.0095,-0.007z"/>
 </g>
</svg>
