<?xml version="1.0" encoding="iso-8859-1"?>
<!-- Generator: Adobe Illustrator 18.1.1, SVG Export Plug-In . SVG Version: 6.00 Build 0)  -->
<svg version="1.1" id="Capa_1" xmlns="http://www.w3.org/2000/svg" xmlns:xlink="http://www.w3.org/1999/xlink" x="0px" y="0px"
	 viewBox="0 0 53.035 53.035" style="enable-background:new 0 0 53.035 53.035;" xml:space="preserve">
<g>
	<path style="fill:#010002;" d="M31.856,0c-8.71,0-15.77,7.061-15.77,15.771c0,4.256,1.693,8.11,4.433,10.947
		c-0.277,0.193-1.204,0.418-2.244,0.934c-0.776,0.385-1.512,0.94-2.116,1.642C9.036,37.561,5.988,45.856,5.988,45.856
		c-0.762,3.014-1.125,5.013,1.21,6.385l0.422,0.248c2.336,1.372,4.354-0.039,6.169-2.049c6.676-7.392,10.299-16.485,10.299-16.485
		c0.312-0.871,0.437-1.782,0.397-2.646c-0.031-0.667-0.127-1.254-0.197-1.698c2.247,1.231,4.824,1.933,7.566,1.933
		c8.71,0,15.771-7.061,15.771-15.771C47.628,7.061,40.566,0,31.856,0z M31.856,27.549c-6.504,0-11.778-5.273-11.778-11.778
		S25.351,3.993,31.856,3.993s11.779,5.273,11.779,11.778S38.361,27.549,31.856,27.549z"/>
	<path style="fill:#010002;" d="M24.558,11.689c-0.188,0-0.378-0.053-0.547-0.164c-0.462-0.303-0.591-0.923-0.288-1.385
		c1.695-2.585,4.552-4.129,7.641-4.129c0.553,0,1,0.448,1,1s-0.447,1-1,1c-2.413,0-4.644,1.206-5.968,3.226
		C25.204,11.53,24.884,11.689,24.558,11.689z"/>
</g>
<g>
</g>
<g>
</g>
<g>
</g>
<g>
</g>
<g>
</g>
<g>
</g>
<g>
</g>
<g>
</g>
<g>
</g>
<g>
</g>
<g>
</g>
<g>
</g>
<g>
</g>
<g>
</g>
<g>
</g>
</svg>
