<?xml version="1.0" encoding="UTF-8"?>
<!DOCTYPE svg PUBLIC "-//W3C//DTD SVG 1.1//EN" "http://www.w3.org/Graphics/SVG/1.1/DTD/svg11.dtd">
<!-- Creator: CorelDRAW X6 -->
<svg xmlns="http://www.w3.org/2000/svg" xml:space="preserve" width="512mm" height="512mm" version="1.1" style="shape-rendering:geometricPrecision; text-rendering:geometricPrecision; image-rendering:optimizeQuality; fill-rule:evenodd; clip-rule:evenodd"
viewBox="0 0 457 457"
 xmlns:xlink="http://www.w3.org/1999/xlink">
 <defs>
  <style type="text/css">
   <![CDATA[
    .fil2 {fill:#A6A7AB}
    .fil1 {fill:#FF6600}
    .fil0 {fill:white}
   ]]>
  </style>
 </defs>
 <g id="Слой_x0020_1">
  <metadata id="CorelCorpID_0Corel-Layer"/>
  <g id="_776175392">
   <circle class="fil0" cx="228" cy="228" r="146"/>
   <path class="fil1" d="M221 266l66 -114 30 17 -79 136 -31 0c-20,-27 -40,-53 -60,-79 -3,-6 -3,-12 3,-17 4,-2 7,-5 11,-7 6,-3 10,-2 14,4l46 60z"/>
   <path class="fil2" d="M85 408c10,-10 21,-19 31,-28 8,-7 18,-8 27,-2 12,7 25,12 39,16 11,3 18,11 19,23 0,13 1,27 2,40 17,0 34,0 50,0 1,-14 2,-28 3,-42 1,-10 7,-18 17,-20 14,-4 27,-9 39,-16 11,-7 21,-7 31,3 10,9 19,17 29,26 12,-12 24,-24 36,-36 -10,-10 -19,-21 -28,-32 -8,-8 -7,-18 -2,-26 8,-13 13,-26 17,-41 3,-11 14,-17 24,-17 13,-1 25,-2 38,-3 0,-16 0,-33 0,-50 -14,-1 -27,-2 -41,-3 -14,0 -17,-7 -22,-18l0 -1 0 0c-4,-13 -9,-26 -15,-37 -7,-9 -6,-21 2,-28 9,-11 18,-21 27,-31 -12,-12 -24,-24 -36,-36 -11,10 -22,20 -34,29 -7,7 -16,6 -23,1 -13,-7 -26,-13 -40,-17 -14,-4 -17,-9 -19,-22l0 0 0 0c-1,-14 -2,-27 -3,-40 -16,0 -33,0 -50,0 -1,13 -2,27 -2,40l-1 0 0 1c-1,9 -5,18 -15,20 -15,4 -29,10 -42,18 -8,4 -22,3 -28,-3 -10,-9 -20,-18 -30,-27 -12,12 -24,24 -36,36 9,10 18,20 26,30 7,8 9,20 3,29 -6,11 -11,23 -15,36l0 1 0 0c-5,11 -12,19 -25,20 -13,1 -25,2 -38,2 0,17 0,34 0,50 12,1 24,2 36,3 12,0 23,7 27,19 3,13 8,26 15,37 6,11 5,22 -3,31 -9,10 -17,19 -26,29 12,12 24,24 36,36zm143 -308c71,0 129,58 129,128 0,71 -58,129 -129,129 -70,0 -128,-58 -128,-129 0,-70 58,-128 128,-128z"/>
  </g>
 </g>
</svg>
