<?xml version="1.0" encoding="UTF-8"?>
<!DOCTYPE svg PUBLIC "-//W3C//DTD SVG 1.1//EN" "http://www.w3.org/Graphics/SVG/1.1/DTD/svg11.dtd">
<!-- Creator: CorelDRAW X6 -->
<svg xmlns="http://www.w3.org/2000/svg" xml:space="preserve" width="512mm" height="512mm" version="1.1" style="shape-rendering:geometricPrecision; text-rendering:geometricPrecision; image-rendering:optimizeQuality; fill-rule:evenodd; clip-rule:evenodd"
viewBox="0 0 703 703"
 xmlns:xlink="http://www.w3.org/1999/xlink">
 <defs>
  <style type="text/css">
   <![CDATA[
    .fil1 {fill:#A6A7AB}
    .fil2 {fill:#FF6600}
    .fil0 {fill:white}
   ]]>
  </style>
 </defs>
 <g id="Слой_x0020_1">
  <metadata id="CorelCorpID_0Corel-Layer"/>
  <g id="_228200608">
   <rect class="fil0" width="703" height="703" rx="114" ry="78"/>
   <path class="fil1" d="M114 0l476 0c62,0 113,51 113,114l0 476c0,62 -51,113 -113,113l-476 0c-63,0 -114,-51 -114,-113l0 -476c0,-63 51,-114 114,-114zm0 29l476 0c46,0 85,38 85,85l0 476c0,46 -39,85 -85,85l-476 0c-47,0 -85,-39 -85,-85l0 -476c0,-47 38,-85 85,-85z"/>
   <g>
    <path class="fil1" d="M193 186l225 0 0 29 -225 0 0 -29zm0 234l225 0 0 28 -225 0 0 -28zm0 -59l225 0 0 29 -225 0 0 -29zm0 -58l225 0 0 28 -225 0 0 -28zm0 -59l225 0 0 29 -225 0 0 -29z"/>
    <path class="fil1" d="M132 130l345 0 0 443 -345 0 0 -443zm28 29l289 0 0 385 -289 0 0 -385z"/>
    <g>
     <rect class="fil2" transform="matrix(0.497913 0.278148 -0.365814 0.654844 557.582 194.668)" width="97.0032" height="421.368"/>
     <polygon class="fil2" points="396,484 445,510 399,536 399,536 "/>
    </g>
   </g>
  </g>
 </g>
</svg>
