<?xml version="1.0" encoding="UTF-8"?>
<!DOCTYPE svg PUBLIC "-//W3C//DTD SVG 1.1//EN" "http://www.w3.org/Graphics/SVG/1.1/DTD/svg11.dtd">
<!-- Creator: CorelDRAW X6 -->
<svg xmlns="http://www.w3.org/2000/svg" xml:space="preserve" width="512mm" height="512.002mm" version="1.1" style="shape-rendering:geometricPrecision; text-rendering:geometricPrecision; image-rendering:optimizeQuality; fill-rule:evenodd; clip-rule:evenodd"
viewBox="0 0 515 515"
 xmlns:xlink="http://www.w3.org/1999/xlink">
 <defs>
  <style type="text/css">
   <![CDATA[
    .fil2 {fill:#A6A7AB}
    .fil1 {fill:#FF6600}
    .fil0 {fill:white}
   ]]>
  </style>
 </defs>
 <g id="Слой_x0020_1">
  <metadata id="CorelCorpID_0Corel-Layer"/>
  <g id="_776164224">
   <path class="fil0" d="M33 0l357 0c4,0 25,4 36,15 22,24 55,55 75,78 5,6 14,29 14,35l0 354c0,18 -15,33 -33,33l-449 0c-18,0 -33,-15 -33,-33l0 -449c0,-18 15,-33 33,-33z"/>
   <path class="fil1" d="M482 515l-449 0c-18,0 -33,-15 -33,-33l0 -449c0,-18 15,-33 33,-33l59 0 0 144c0,10 8,19 19,19l231 0c10,0 19,-9 19,-19l0 -144 29 0c17,0 26,6 36,15 29,31 45,48 73,76 11,11 15,23 16,37l0 354c0,18 -15,33 -33,33zm-375 -272l297 0c8,0 14,7 14,15l0 166c0,8 -6,15 -14,15l-297 0c-8,0 -15,-7 -15,-15l0 -166c0,-8 7,-15 15,-15z"/>
   <path class="fil2" d="M116 384l278 0 0 28 -278 0 0 -28zm0 -112l278 0 0 28 -278 0 0 -28zm0 56l278 0 0 28 -278 0 0 -28z"/>
   <rect class="fil2" x="116" width="221" height="139"/>
  </g>
 </g>
</svg>
