<?xml version="1.0" encoding="UTF-8"?>
<!DOCTYPE svg PUBLIC "-//W3C//DTD SVG 1.1//EN" "http://www.w3.org/Graphics/SVG/1.1/DTD/svg11.dtd">
<!-- Creator: CorelDRAW X6 -->
<svg xmlns="http://www.w3.org/2000/svg" xml:space="preserve" width="512mm" height="512.572mm" version="1.1" style="shape-rendering:geometricPrecision; text-rendering:geometricPrecision; image-rendering:optimizeQuality; fill-rule:evenodd; clip-rule:evenodd"
viewBox="0 0 422 423"
 xmlns:xlink="http://www.w3.org/1999/xlink">
 <defs>
  <style type="text/css">
   <![CDATA[
    .fil1 {fill:#A6A7AB}
    .fil2 {fill:#FF6600}
    .fil0 {fill:white}
   ]]>
  </style>
 </defs>
 <g id="Слой_x0020_1">
  <metadata id="CorelCorpID_0Corel-Layer"/>
  <path class="fil0" d="M316 354c-12,12 -23,23 -35,35 -9,-8 -18,-15 -27,-23 -5,-6 -9,-4 -14,-2 -10,6 -20,10 -30,13 -4,1 -7,3 -7,8 -1,13 -2,25 -3,38 -17,0 -33,0 -50,0 -1,-12 -2,-24 -3,-36 0,-6 -3,-9 -8,-11 -11,-3 -21,-7 -31,-12 -3,-3 -7,-3 -11,1 -9,8 -19,16 -28,24 -12,-12 -24,-23 -35,-35 7,-9 15,-18 23,-27 4,-4 4,-10 1,-14 -5,-9 -9,-19 -12,-29 -1,-5 -6,-9 -13,-9 -11,-1 -22,-1 -33,-2 0,-17 0,-34 0,-50 12,-1 23,-2 35,-3 6,0 9,-4 11,-10 3,-10 7,-19 12,-28 2,-3 3,-9 -1,-13 -8,-9 -16,-18 -23,-27 11,-12 23,-24 35,-36 9,8 18,16 28,24 2,3 9,3 11,2 10,-6 22,-11 33,-14 5,-1 6,-6 6,-9 1,-12 2,-24 3,-36 17,0 33,0 50,0 1,12 2,24 2,36 1,5 1,8 9,10 11,3 21,7 31,13 4,3 6,2 9,0 10,-8 20,-17 30,-26 12,12 23,24 35,36 -8,9 -16,19 -24,28 -4,3 -3,8 -1,12 5,9 10,19 12,29 2,4 3,9 10,9 12,1 24,2 37,3 0,16 0,33 0,50 -12,1 -23,1 -35,2 -5,0 -10,3 -11,7 -3,13 -8,23 -13,32 -2,3 -3,7 0,11 9,9 17,19 25,29zm-141 -155c27,0 48,22 48,49 0,26 -21,48 -48,48 -27,0 -49,-22 -49,-48 0,-27 22,-49 49,-49z"/>
  <circle class="fil0" cx="175" cy="248" r="58"/>
  <path class="fil1" d="M316 354c-12,12 -23,23 -35,35 -9,-8 -18,-15 -27,-23 -5,-6 -9,-4 -14,-2 -10,6 -20,10 -30,13 -4,1 -7,3 -7,8 -1,13 -2,25 -3,38 -17,0 -33,0 -50,0 -1,-12 -2,-24 -3,-36 0,-6 -3,-9 -8,-11 -11,-3 -21,-7 -31,-12 -3,-3 -7,-3 -11,1 -9,8 -19,16 -28,24 -12,-12 -24,-23 -35,-35 7,-9 15,-18 23,-27 4,-4 4,-10 1,-14 -5,-9 -9,-19 -12,-29 -1,-5 -6,-9 -13,-9 -11,-1 -22,-1 -33,-2 0,-17 0,-34 0,-50 12,-1 23,-2 35,-3 6,0 9,-4 11,-10 3,-10 7,-19 12,-28 2,-3 3,-9 -1,-13 -8,-9 -16,-18 -23,-27 11,-12 23,-24 35,-36 9,8 18,16 28,24 2,3 9,3 11,2 10,-6 22,-11 33,-14 5,-1 6,-6 6,-9 1,-12 2,-24 3,-36 17,0 33,0 50,0l1 20 -21 1 -8 1 0 8c0,12 0,23 0,35l0 8 8 1c8,1 16,1 23,2l1 0 0 0c2,7 5,14 9,20 -5,6 -11,12 -16,18l-5 7 6 6c8,8 16,16 24,24l6 7 7 -6c6,-5 12,-11 18,-16 6,4 13,7 20,9 1,8 2,16 2,24l1 8 8 0c12,0 23,0 35,0l8 0 1 -8c1,-7 1,-14 2,-21l20 2c0,16 0,33 0,50 -12,1 -23,1 -35,2 -5,0 -10,3 -11,7 -3,13 -8,23 -13,32 -2,3 -3,7 0,11 9,9 17,19 25,29zm-141 -155c27,0 48,22 48,49 0,26 -21,48 -48,48 -27,0 -49,-22 -49,-48 0,-27 22,-49 49,-49z"/>
  <circle class="fil0" cx="301" cy="120" r="58"/>
  <path class="fil2" d="M399 194c-8,8 -16,16 -24,24 -7,-5 -13,-11 -19,-16 -4,-4 -6,-3 -10,-1 -6,4 -13,6 -20,8 -3,1 -5,3 -5,6 -1,9 -1,17 -2,26 -12,0 -23,0 -35,0 0,-8 -1,-16 -1,-25 -1,-4 -3,-6 -6,-7 -8,-2 -15,-5 -21,-9 -3,-1 -5,-1 -8,1 -6,6 -13,11 -19,17 -8,-8 -17,-16 -25,-24 6,-7 11,-13 16,-19 3,-3 3,-6 1,-10 -3,-6 -6,-12 -8,-20 -1,-3 -4,-6 -9,-6 -8,0 -15,-1 -23,-1 0,-12 0,-23 0,-35 8,0 16,-1 24,-1 5,-1 7,-4 8,-7 2,-7 5,-14 8,-20 2,-2 2,-6 0,-9 -6,-6 -11,-12 -17,-19 8,-8 17,-16 25,-24 6,6 12,11 19,17 1,2 6,2 8,1 7,-5 14,-8 23,-10 3,0 3,-4 4,-6 0,-8 1,-17 1,-25 12,0 23,0 35,0 0,8 1,16 2,25 0,4 0,5 5,7 8,2 15,5 22,9 2,2 4,1 6,0 7,-6 14,-12 21,-18 8,8 16,16 24,24 -6,7 -11,13 -17,20 -2,2 -2,5 0,8 3,6 6,13 8,20 1,3 2,6 7,6 8,1 17,2 25,2 0,12 0,23 0,35 -8,0 -16,1 -23,1 -4,0 -8,2 -8,5 -3,9 -6,16 -9,22 -2,3 -3,5 0,8 6,6 11,13 17,20zm-97 -107c18,0 33,15 33,33 0,19 -15,34 -33,34 -19,0 -34,-15 -34,-34 0,-18 15,-33 34,-33z"/>
 </g>
</svg>
