<?xml version="1.0" ?><svg clip-rule="evenodd" fill-rule="evenodd" image-rendering="optimizeQuality" shape-rendering="geometricPrecision" text-rendering="geometricPrecision" viewBox="0 0 500 500" xmlns="http://www.w3.org/2000/svg"><defs><linearGradient gradientUnits="userSpaceOnUse" id="a" x1="249.999" x2="249.999" y1="50" y2="430.309"><stop offset="0" stop-color="#008BFF"/><stop offset="1" stop-color="#0af"/></linearGradient><linearGradient gradientUnits="userSpaceOnUse" id="b" x1="250" x2="250" y1="212.21" y2="325.856"><stop offset="0" stop-color="#FCFCFD"/><stop offset="1" stop-color="#fff"/></linearGradient></defs><g stroke="#434242" stroke-width="10"><path d="M258 55l101 180 100 179c1 4 1 8 0 11-2 3-5 5-9 5h-400c-4 0-7-2-9-5-1-3-1-7 0-11l100-179 100-180c2-3 5-5 9-5s7 2 8 5z" fill="url(#a)"/><path d="M255 327h-10c-1-15-4-33-10-55l-12-43c-7-26-10-44-10-55 0-10 3-19 10-25s16-9 27-9 20 3 27 9c7 7 10 15 10 24 0 10-3 29-11 56l-12 43c-4 16-7 34-9 55zm-5 11c17 0 30 14 30 30 0 17-13 30-30 30s-30-13-30-30c0-16 13-30 30-30z" fill="url(#b)" stroke-linejoin="round"/></g></svg>